<svg width="162" height="50" viewBox="0 0 162 50" fill="none" xmlns="http://www.w3.org/2000/svg">
<g filter="url(#filter0_d_1_32)">
<path fill-rule="evenodd" clip-rule="evenodd" d="M9 1C4.58172 1 1 4.58172 1 9V41C1 45.4183 4.58172 49 9 49H153C157.418 49 161 45.4183 161 41V9C161 4.58172 157.418 1 153 1H9ZM45.265 19.9081C45.2971 19.8869 45.3191 19.8723 45.3293 19.8643C43.5907 17.3524 40.9493 17.2848 40.2141 17.2848C39.0894 17.2848 38.0827 17.6869 37.2366 18.0248C36.6234 18.2697 36.0945 18.4809 35.6664 18.4809C35.1931 18.4809 34.6513 18.2604 34.0467 18.0143C33.2837 17.7037 32.4208 17.3524 31.4695 17.3524C28.2605 17.3524 25 20.0333 25 25.0882C25 28.2397 26.2046 31.5603 27.6956 33.6977C28.9828 35.5179 30.1023 37 31.7068 37C32.4676 37 33.0254 36.7615 33.612 36.5106C34.2625 36.2324 34.9486 35.9391 35.9862 35.9391C37.035 35.9391 37.6617 36.2146 38.2659 36.4803C38.8283 36.7275 39.3711 36.9662 40.2167 36.9662C41.9708 36.9662 43.1238 35.367 44.2279 33.7653C45.466 31.9451 45.9845 30.1587 46 30.0755C45.8994 30.0417 42.5383 28.6766 42.5383 24.8178C42.5383 21.7106 44.8296 20.1958 45.265 19.9081ZM40.6629 11.5227C40.6629 12.854 40.0954 14.1853 39.2932 15.1448C38.442 16.2083 36.969 16.9988 35.7979 16.9988C35.6638 16.9988 35.5297 16.9806 35.4471 16.965C35.4316 16.9 35.3981 16.6972 35.3981 16.4943C35.3981 15.1448 36.0843 13.8135 36.8194 12.971C37.7558 11.8763 39.3087 11.0494 40.6139 11C40.6475 11.1508 40.6629 11.338 40.6629 11.5227Z" fill="white"/>
</g>
<path d="M59.1 20C59.0267 20 58.97 19.98 58.93 19.94C58.89 19.8933 58.87 19.8367 58.87 19.77V13.24C58.87 13.1667 58.89 13.11 58.93 13.07C58.97 13.0233 59.0267 13 59.1 13H61.37C62.0567 13 62.61 13.1033 63.03 13.31C63.45 13.5167 63.7567 13.8233 63.95 14.23C64.1433 14.63 64.2433 15.1233 64.25 15.71C64.2567 16.01 64.26 16.2733 64.26 16.5C64.26 16.7267 64.2567 16.9867 64.25 17.28C64.2367 17.8933 64.1333 18.4033 63.94 18.81C63.7533 19.21 63.4533 19.51 63.04 19.71C62.6333 19.9033 62.0933 20 61.42 20H59.1ZM59.85 19.15H61.37C61.83 19.15 62.1967 19.0867 62.47 18.96C62.7433 18.8333 62.94 18.63 63.06 18.35C63.1867 18.07 63.2533 17.7 63.26 17.24C63.2733 17.04 63.28 16.8667 63.28 16.72C63.28 16.5667 63.28 16.4167 63.28 16.27C63.28 16.1167 63.2733 15.9433 63.26 15.75C63.2467 15.1033 63.0933 14.6267 62.8 14.32C62.5067 14.0067 62.0133 13.85 61.32 13.85H59.85V19.15ZM67.6645 20.1C67.1579 20.1 66.7345 20.0033 66.3945 19.81C66.0545 19.6167 65.7945 19.35 65.6145 19.01C65.4345 18.6633 65.3345 18.27 65.3145 17.83C65.3079 17.7167 65.3045 17.5733 65.3045 17.4C65.3045 17.22 65.3079 17.0767 65.3145 16.97C65.3345 16.5233 65.4345 16.13 65.6145 15.79C65.8012 15.45 66.0645 15.1833 66.4045 14.99C66.7445 14.7967 67.1645 14.7 67.6645 14.7C68.1645 14.7 68.5845 14.7967 68.9245 14.99C69.2645 15.1833 69.5245 15.45 69.7045 15.79C69.8912 16.13 69.9945 16.5233 70.0145 16.97C70.0212 17.0767 70.0245 17.22 70.0245 17.4C70.0245 17.5733 70.0212 17.7167 70.0145 17.83C69.9945 18.27 69.8945 18.6633 69.7145 19.01C69.5345 19.35 69.2745 19.6167 68.9345 19.81C68.5945 20.0033 68.1712 20.1 67.6645 20.1ZM67.6645 19.33C68.0779 19.33 68.4079 19.2 68.6545 18.94C68.9012 18.6733 69.0345 18.2867 69.0545 17.78C69.0612 17.68 69.0645 17.5533 69.0645 17.4C69.0645 17.2467 69.0612 17.12 69.0545 17.02C69.0345 16.5133 68.9012 16.13 68.6545 15.87C68.4079 15.6033 68.0779 15.47 67.6645 15.47C67.2512 15.47 66.9179 15.6033 66.6645 15.87C66.4179 16.13 66.2879 16.5133 66.2745 17.02C66.2679 17.12 66.2645 17.2467 66.2645 17.4C66.2645 17.5533 66.2679 17.68 66.2745 17.78C66.2879 18.2867 66.4179 18.6733 66.6645 18.94C66.9179 19.2 67.2512 19.33 67.6645 19.33ZM72.42 20C72.3333 20 72.2667 19.98 72.22 19.94C72.1733 19.8933 72.1333 19.83 72.1 19.75L70.68 15.11C70.6667 15.0767 70.66 15.0433 70.66 15.01C70.66 14.95 70.68 14.9 70.72 14.86C70.7667 14.82 70.8167 14.8 70.87 14.8H71.31C71.3833 14.8 71.44 14.82 71.48 14.86C71.52 14.9 71.5467 14.9367 71.56 14.97L72.67 18.74L73.86 15.01C73.8733 14.9633 73.9 14.9167 73.94 14.87C73.9867 14.8233 74.0533 14.8 74.14 14.8H74.48C74.5667 14.8 74.6333 14.8233 74.68 14.87C74.7267 14.9167 74.7533 14.9633 74.76 15.01L75.95 18.74L77.06 14.97C77.0667 14.9367 77.09 14.9 77.13 14.86C77.17 14.82 77.2267 14.8 77.3 14.8H77.74C77.8 14.8 77.85 14.82 77.89 14.86C77.93 14.9 77.95 14.95 77.95 15.01C77.95 15.0433 77.9433 15.0767 77.93 15.11L76.51 19.75C76.49 19.83 76.4533 19.8933 76.4 19.94C76.3533 19.98 76.2833 20 76.19 20H75.8C75.7133 20 75.64 19.98 75.58 19.94C75.5267 19.8933 75.49 19.83 75.47 19.75L74.31 16.17L73.15 19.75C73.1233 19.83 73.0833 19.8933 73.03 19.94C72.9767 19.98 72.9033 20 72.81 20H72.42ZM79.1876 20C79.1209 20 79.0642 19.98 79.0176 19.94C78.9776 19.8933 78.9576 19.8367 78.9576 19.77V15.03C78.9576 14.9633 78.9776 14.91 79.0176 14.87C79.0642 14.8233 79.1209 14.8 79.1876 14.8H79.6576C79.7242 14.8 79.7776 14.8233 79.8176 14.87C79.8642 14.91 79.8876 14.9633 79.8876 15.03V15.47C80.0609 15.2433 80.2776 15.06 80.5376 14.92C80.8042 14.7733 81.1442 14.7 81.5576 14.7C81.9909 14.7 82.3576 14.7967 82.6576 14.99C82.9642 15.1767 83.1942 15.44 83.3476 15.78C83.5009 16.1133 83.5776 16.5033 83.5776 16.95V19.77C83.5776 19.8367 83.5576 19.8933 83.5176 19.94C83.4776 19.98 83.4242 20 83.3576 20H82.8576C82.7909 20 82.7342 19.98 82.6876 19.94C82.6476 19.8933 82.6276 19.8367 82.6276 19.77V17C82.6276 16.5333 82.5142 16.17 82.2876 15.91C82.0609 15.6433 81.7276 15.51 81.2876 15.51C80.8742 15.51 80.5409 15.6433 80.2876 15.91C80.0409 16.17 79.9176 16.5333 79.9176 17V19.77C79.9176 19.8367 79.8942 19.8933 79.8476 19.94C79.8076 19.98 79.7542 20 79.6876 20H79.1876ZM85.162 20C85.0954 20 85.0387 19.98 84.992 19.94C84.952 19.8933 84.932 19.8367 84.932 19.77V13.13C84.932 13.0633 84.952 13.01 84.992 12.97C85.0387 12.9233 85.0954 12.9 85.162 12.9H85.632C85.7054 12.9 85.762 12.9233 85.802 12.97C85.842 13.01 85.862 13.0633 85.862 13.13V19.77C85.862 19.8367 85.842 19.8933 85.802 19.94C85.762 19.98 85.7054 20 85.632 20H85.162ZM89.3837 20.1C88.877 20.1 88.4537 20.0033 88.1137 19.81C87.7737 19.6167 87.5137 19.35 87.3337 19.01C87.1537 18.6633 87.0537 18.27 87.0337 17.83C87.027 17.7167 87.0237 17.5733 87.0237 17.4C87.0237 17.22 87.027 17.0767 87.0337 16.97C87.0537 16.5233 87.1537 16.13 87.3337 15.79C87.5203 15.45 87.7837 15.1833 88.1237 14.99C88.4637 14.7967 88.8837 14.7 89.3837 14.7C89.8837 14.7 90.3037 14.7967 90.6437 14.99C90.9837 15.1833 91.2437 15.45 91.4237 15.79C91.6103 16.13 91.7137 16.5233 91.7337 16.97C91.7403 17.0767 91.7437 17.22 91.7437 17.4C91.7437 17.5733 91.7403 17.7167 91.7337 17.83C91.7137 18.27 91.6137 18.6633 91.4337 19.01C91.2537 19.35 90.9937 19.6167 90.6537 19.81C90.3137 20.0033 89.8903 20.1 89.3837 20.1ZM89.3837 19.33C89.797 19.33 90.127 19.2 90.3737 18.94C90.6203 18.6733 90.7537 18.2867 90.7737 17.78C90.7803 17.68 90.7837 17.5533 90.7837 17.4C90.7837 17.2467 90.7803 17.12 90.7737 17.02C90.7537 16.5133 90.6203 16.13 90.3737 15.87C90.127 15.6033 89.797 15.47 89.3837 15.47C88.9703 15.47 88.637 15.6033 88.3837 15.87C88.137 16.13 88.007 16.5133 87.9937 17.02C87.987 17.12 87.9837 17.2467 87.9837 17.4C87.9837 17.5533 87.987 17.68 87.9937 17.78C88.007 18.2867 88.137 18.6733 88.3837 18.94C88.637 19.2 88.9703 19.33 89.3837 19.33ZM94.3459 20.1C94.0125 20.1 93.7092 20.0333 93.4359 19.9C93.1625 19.7667 92.9425 19.5867 92.7759 19.36C92.6092 19.1333 92.5259 18.8767 92.5259 18.59C92.5259 18.13 92.7125 17.7633 93.0859 17.49C93.4592 17.2167 93.9459 17.0367 94.5459 16.95L96.0359 16.74V16.45C96.0359 16.13 95.9425 15.88 95.7559 15.7C95.5759 15.52 95.2792 15.43 94.8659 15.43C94.5659 15.43 94.3225 15.49 94.1359 15.61C93.9559 15.73 93.8292 15.8833 93.7559 16.07C93.7159 16.17 93.6459 16.22 93.5459 16.22H93.0959C93.0225 16.22 92.9659 16.2 92.9259 16.16C92.8925 16.1133 92.8759 16.06 92.8759 16C92.8759 15.9 92.9125 15.7767 92.9859 15.63C93.0659 15.4833 93.1859 15.34 93.3459 15.2C93.5059 15.06 93.7092 14.9433 93.9559 14.85C94.2092 14.75 94.5159 14.7 94.8759 14.7C95.2759 14.7 95.6125 14.7533 95.8859 14.86C96.1592 14.96 96.3725 15.0967 96.5259 15.27C96.6859 15.4433 96.7992 15.64 96.8659 15.86C96.9392 16.08 96.9759 16.3033 96.9759 16.53V19.77C96.9759 19.8367 96.9525 19.8933 96.9059 19.94C96.8659 19.98 96.8125 20 96.7459 20H96.2859C96.2125 20 96.1559 19.98 96.1159 19.94C96.0759 19.8933 96.0559 19.8367 96.0559 19.77V19.34C95.9692 19.46 95.8525 19.58 95.7059 19.7C95.5592 19.8133 95.3759 19.91 95.1559 19.99C94.9359 20.0633 94.6659 20.1 94.3459 20.1ZM94.5559 19.35C94.8292 19.35 95.0792 19.2933 95.3059 19.18C95.5325 19.06 95.7092 18.8767 95.8359 18.63C95.9692 18.3833 96.0359 18.0733 96.0359 17.7V17.42L94.8759 17.59C94.4025 17.6567 94.0459 17.77 93.8059 17.93C93.5659 18.0833 93.4459 18.28 93.4459 18.52C93.4459 18.7067 93.4992 18.8633 93.6059 18.99C93.7192 19.11 93.8592 19.2 94.0259 19.26C94.1992 19.32 94.3759 19.35 94.5559 19.35ZM100.213 20.1C99.8468 20.1 99.5301 20.0367 99.2634 19.91C98.9968 19.7767 98.7768 19.6 98.6034 19.38C98.4368 19.1533 98.3101 18.8967 98.2234 18.61C98.1434 18.3233 98.0968 18.02 98.0834 17.7C98.0768 17.5933 98.0734 17.4933 98.0734 17.4C98.0734 17.3067 98.0768 17.2067 98.0834 17.1C98.0968 16.7867 98.1434 16.4867 98.2234 16.2C98.3101 15.9133 98.4368 15.6567 98.6034 15.43C98.7768 15.2033 98.9968 15.0267 99.2634 14.9C99.5301 14.7667 99.8468 14.7 100.213 14.7C100.607 14.7 100.933 14.77 101.193 14.91C101.453 15.05 101.667 15.2233 101.833 15.43V13.13C101.833 13.0633 101.853 13.01 101.893 12.97C101.94 12.9233 101.997 12.9 102.063 12.9H102.543C102.61 12.9 102.663 12.9233 102.703 12.97C102.75 13.01 102.773 13.0633 102.773 13.13V19.77C102.773 19.8367 102.75 19.8933 102.703 19.94C102.663 19.98 102.61 20 102.543 20H102.093C102.02 20 101.963 19.98 101.923 19.94C101.883 19.8933 101.863 19.8367 101.863 19.77V19.35C101.697 19.5633 101.48 19.7433 101.213 19.89C100.947 20.03 100.613 20.1 100.213 20.1ZM100.423 19.29C100.757 19.29 101.023 19.2133 101.223 19.06C101.423 18.9067 101.573 18.7133 101.673 18.48C101.773 18.24 101.827 17.9967 101.833 17.75C101.84 17.6433 101.843 17.5167 101.843 17.37C101.843 17.2167 101.84 17.0867 101.833 16.98C101.827 16.7467 101.77 16.5167 101.663 16.29C101.563 16.0633 101.41 15.8767 101.203 15.73C101.003 15.5833 100.743 15.51 100.423 15.51C100.083 15.51 99.8134 15.5867 99.6134 15.74C99.4134 15.8867 99.2701 16.0833 99.1834 16.33C99.0968 16.57 99.0468 16.83 99.0334 17.11C99.0268 17.3033 99.0268 17.4967 99.0334 17.69C99.0468 17.97 99.0968 18.2333 99.1834 18.48C99.2701 18.72 99.4134 18.9167 99.6134 19.07C99.8134 19.2167 100.083 19.29 100.423 19.29ZM108.642 20.1C108.135 20.1 107.712 20.0033 107.372 19.81C107.032 19.6167 106.772 19.35 106.592 19.01C106.412 18.6633 106.312 18.27 106.292 17.83C106.285 17.7167 106.282 17.5733 106.282 17.4C106.282 17.22 106.285 17.0767 106.292 16.97C106.312 16.5233 106.412 16.13 106.592 15.79C106.779 15.45 107.042 15.1833 107.382 14.99C107.722 14.7967 108.142 14.7 108.642 14.7C109.142 14.7 109.562 14.7967 109.902 14.99C110.242 15.1833 110.502 15.45 110.682 15.79C110.869 16.13 110.972 16.5233 110.992 16.97C110.999 17.0767 111.002 17.22 111.002 17.4C111.002 17.5733 110.999 17.7167 110.992 17.83C110.972 18.27 110.872 18.6633 110.692 19.01C110.512 19.35 110.252 19.6167 109.912 19.81C109.572 20.0033 109.149 20.1 108.642 20.1ZM108.642 19.33C109.055 19.33 109.385 19.2 109.632 18.94C109.879 18.6733 110.012 18.2867 110.032 17.78C110.039 17.68 110.042 17.5533 110.042 17.4C110.042 17.2467 110.039 17.12 110.032 17.02C110.012 16.5133 109.879 16.13 109.632 15.87C109.385 15.6033 109.055 15.47 108.642 15.47C108.229 15.47 107.895 15.6033 107.642 15.87C107.395 16.13 107.265 16.5133 107.252 17.02C107.245 17.12 107.242 17.2467 107.242 17.4C107.242 17.5533 107.245 17.68 107.252 17.78C107.265 18.2867 107.395 18.6733 107.642 18.94C107.895 19.2 108.229 19.33 108.642 19.33ZM112.384 20C112.317 20 112.261 19.98 112.214 19.94C112.174 19.8933 112.154 19.8367 112.154 19.77V15.03C112.154 14.9633 112.174 14.91 112.214 14.87C112.261 14.8233 112.317 14.8 112.384 14.8H112.854C112.921 14.8 112.974 14.8233 113.014 14.87C113.061 14.91 113.084 14.9633 113.084 15.03V15.47C113.257 15.2433 113.474 15.06 113.734 14.92C114.001 14.7733 114.341 14.7 114.754 14.7C115.187 14.7 115.554 14.7967 115.854 14.99C116.161 15.1767 116.391 15.44 116.544 15.78C116.697 16.1133 116.774 16.5033 116.774 16.95V19.77C116.774 19.8367 116.754 19.8933 116.714 19.94C116.674 19.98 116.621 20 116.554 20H116.054C115.987 20 115.931 19.98 115.884 19.94C115.844 19.8933 115.824 19.8367 115.824 19.77V17C115.824 16.5333 115.711 16.17 115.484 15.91C115.257 15.6433 114.924 15.51 114.484 15.51C114.071 15.51 113.737 15.6433 113.484 15.91C113.237 16.17 113.114 16.5333 113.114 17V19.77C113.114 19.8367 113.091 19.8933 113.044 19.94C113.004 19.98 112.951 20 112.884 20H112.384ZM122.285 20C121.912 20 121.608 19.93 121.375 19.79C121.142 19.6433 120.972 19.44 120.865 19.18C120.758 18.9133 120.705 18.6 120.705 18.24V15.6H119.925C119.858 15.6 119.802 15.58 119.755 15.54C119.715 15.4933 119.695 15.4367 119.695 15.37V15.03C119.695 14.9633 119.715 14.91 119.755 14.87C119.802 14.8233 119.858 14.8 119.925 14.8H120.705V13.13C120.705 13.0633 120.725 13.01 120.765 12.97C120.812 12.9233 120.868 12.9 120.935 12.9H121.405C121.472 12.9 121.525 12.9233 121.565 12.97C121.612 13.01 121.635 13.0633 121.635 13.13V14.8H122.875C122.942 14.8 122.995 14.8233 123.035 14.87C123.082 14.91 123.105 14.9633 123.105 15.03V15.37C123.105 15.4367 123.082 15.4933 123.035 15.54C122.995 15.58 122.942 15.6 122.875 15.6H121.635V18.17C121.635 18.4833 121.688 18.73 121.795 18.91C121.902 19.09 122.092 19.18 122.365 19.18H122.975C123.042 19.18 123.095 19.2033 123.135 19.25C123.182 19.29 123.205 19.3433 123.205 19.41V19.77C123.205 19.8367 123.182 19.8933 123.135 19.94C123.095 19.98 123.042 20 122.975 20H122.285ZM124.301 20C124.234 20 124.178 19.98 124.131 19.94C124.091 19.8933 124.071 19.8367 124.071 19.77V13.13C124.071 13.0633 124.091 13.01 124.131 12.97C124.178 12.9233 124.234 12.9 124.301 12.9H124.801C124.874 12.9 124.931 12.9233 124.971 12.97C125.011 13.01 125.031 13.0633 125.031 13.13V15.46C125.211 15.2333 125.431 15.05 125.691 14.91C125.951 14.77 126.281 14.7 126.681 14.7C127.114 14.7 127.481 14.7967 127.781 14.99C128.088 15.1767 128.318 15.44 128.471 15.78C128.631 16.1133 128.711 16.5033 128.711 16.95V19.77C128.711 19.8367 128.691 19.8933 128.651 19.94C128.611 19.98 128.554 20 128.481 20H127.981C127.914 20 127.858 19.98 127.811 19.94C127.771 19.8933 127.751 19.8367 127.751 19.77V17C127.751 16.5333 127.638 16.17 127.411 15.91C127.184 15.6433 126.851 15.51 126.411 15.51C125.998 15.51 125.664 15.6433 125.411 15.91C125.158 16.17 125.031 16.5333 125.031 17V19.77C125.031 19.8367 125.011 19.8933 124.971 19.94C124.931 19.98 124.874 20 124.801 20H124.301ZM132.125 20.1C131.438 20.1 130.892 19.89 130.485 19.47C130.078 19.0433 129.855 18.4633 129.815 17.73C129.808 17.6433 129.805 17.5333 129.805 17.4C129.805 17.26 129.808 17.1467 129.815 17.06C129.842 16.5867 129.952 16.1733 130.145 15.82C130.338 15.46 130.602 15.1833 130.935 14.99C131.275 14.7967 131.672 14.7 132.125 14.7C132.632 14.7 133.055 14.8067 133.395 15.02C133.742 15.2333 134.005 15.5367 134.185 15.93C134.365 16.3233 134.455 16.7833 134.455 17.31V17.48C134.455 17.5533 134.432 17.61 134.385 17.65C134.345 17.69 134.292 17.71 134.225 17.71H130.765C130.765 17.7167 130.765 17.73 130.765 17.75C130.765 17.77 130.765 17.7867 130.765 17.8C130.778 18.0733 130.838 18.33 130.945 18.57C131.052 18.8033 131.205 18.9933 131.405 19.14C131.605 19.2867 131.845 19.36 132.125 19.36C132.365 19.36 132.565 19.3233 132.725 19.25C132.885 19.1767 133.015 19.0967 133.115 19.01C133.215 18.9167 133.282 18.8467 133.315 18.8C133.375 18.7133 133.422 18.6633 133.455 18.65C133.488 18.63 133.542 18.62 133.615 18.62H134.095C134.162 18.62 134.215 18.64 134.255 18.68C134.302 18.7133 134.322 18.7633 134.315 18.83C134.308 18.93 134.255 19.0533 134.155 19.2C134.055 19.34 133.912 19.48 133.725 19.62C133.538 19.76 133.312 19.8767 133.045 19.97C132.778 20.0567 132.472 20.1 132.125 20.1ZM130.765 17.02H133.505V16.99C133.505 16.69 133.448 16.4233 133.335 16.19C133.228 15.9567 133.072 15.7733 132.865 15.64C132.658 15.5 132.412 15.43 132.125 15.43C131.838 15.43 131.592 15.5 131.385 15.64C131.185 15.7733 131.032 15.9567 130.925 16.19C130.818 16.4233 130.765 16.69 130.765 16.99V17.02Z" fill="#333333"/>
<path d="M58.56 37C58.4853 37 58.42 36.972 58.364 36.916C58.308 36.86 58.28 36.7947 58.28 36.72C58.28 36.6733 58.2847 36.622 58.294 36.566L61.766 27.508C61.8033 27.4147 61.8547 27.34 61.92 27.284C61.9853 27.228 62.0833 27.2 62.214 27.2H63.166C63.2873 27.2 63.3807 27.228 63.446 27.284C63.5207 27.34 63.5767 27.4147 63.614 27.508L67.072 36.566C67.0907 36.622 67.1 36.6733 67.1 36.72C67.1 36.7947 67.072 36.86 67.016 36.916C66.96 36.972 66.8947 37 66.82 37H66.106C65.994 37 65.91 36.972 65.854 36.916C65.8073 36.86 65.7747 36.8087 65.756 36.762L64.986 34.774H60.394L59.624 36.762C59.6147 36.8087 59.582 36.86 59.526 36.916C59.47 36.972 59.386 37 59.274 37H58.56ZM60.8 33.57H64.58L62.69 28.6L60.8 33.57ZM68.6109 39.66C68.5176 39.66 68.4382 39.6273 68.3729 39.562C68.3169 39.506 68.2889 39.4313 68.2889 39.338V30.042C68.2889 29.9487 68.3169 29.874 68.3729 29.818C68.4382 29.7527 68.5176 29.72 68.6109 29.72H69.2549C69.3482 29.72 69.4229 29.7527 69.4789 29.818C69.5442 29.874 69.5769 29.9487 69.5769 30.042V30.658C69.8009 30.35 70.0996 30.0933 70.4729 29.888C70.8462 29.6827 71.3129 29.58 71.8729 29.58C72.3956 29.58 72.8389 29.6687 73.2029 29.846C73.5762 30.0233 73.8796 30.266 74.1129 30.574C74.3556 30.882 74.5376 31.232 74.6589 31.624C74.7802 32.016 74.8456 32.436 74.8549 32.884C74.8642 33.0333 74.8689 33.192 74.8689 33.36C74.8689 33.528 74.8642 33.6867 74.8549 33.836C74.8456 34.2747 74.7802 34.6947 74.6589 35.096C74.5376 35.488 74.3556 35.838 74.1129 36.146C73.8796 36.4447 73.5762 36.6873 73.2029 36.874C72.8389 37.0513 72.3956 37.14 71.8729 37.14C71.3316 37.14 70.8742 37.042 70.5009 36.846C70.1369 36.6407 69.8382 36.3887 69.6049 36.09V39.338C69.6049 39.4313 69.5769 39.506 69.5209 39.562C69.4649 39.6273 69.3856 39.66 69.2829 39.66H68.6109ZM71.5789 36.006C72.0642 36.006 72.4422 35.9033 72.7129 35.698C72.9929 35.4833 73.1936 35.208 73.3149 34.872C73.4362 34.5267 73.5062 34.158 73.5249 33.766C73.5342 33.4953 73.5342 33.2247 73.5249 32.954C73.5062 32.562 73.4362 32.198 73.3149 31.862C73.1936 31.5167 72.9929 31.2413 72.7129 31.036C72.4422 30.8213 72.0642 30.714 71.5789 30.714C71.1216 30.714 70.7482 30.8213 70.4589 31.036C70.1789 31.2507 69.9689 31.526 69.8289 31.862C69.6982 32.1887 69.6236 32.5247 69.6049 32.87C69.5956 33.0193 69.5909 33.1967 69.5909 33.402C69.5909 33.6073 69.5956 33.7893 69.6049 33.948C69.6142 34.2747 69.6889 34.5967 69.8289 34.914C69.9782 35.2313 70.1976 35.4927 70.4869 35.698C70.7762 35.9033 71.1402 36.006 71.5789 36.006ZM76.8107 39.66C76.7174 39.66 76.6381 39.6273 76.5727 39.562C76.5167 39.506 76.4887 39.4313 76.4887 39.338V30.042C76.4887 29.9487 76.5167 29.874 76.5727 29.818C76.6381 29.7527 76.7174 29.72 76.8107 29.72H77.4547C77.5481 29.72 77.6227 29.7527 77.6787 29.818C77.7441 29.874 77.7767 29.9487 77.7767 30.042V30.658C78.0007 30.35 78.2994 30.0933 78.6727 29.888C79.0461 29.6827 79.5127 29.58 80.0727 29.58C80.5954 29.58 81.0387 29.6687 81.4027 29.846C81.7761 30.0233 82.0794 30.266 82.3127 30.574C82.5554 30.882 82.7374 31.232 82.8587 31.624C82.9801 32.016 83.0454 32.436 83.0547 32.884C83.0641 33.0333 83.0687 33.192 83.0687 33.36C83.0687 33.528 83.0641 33.6867 83.0547 33.836C83.0454 34.2747 82.9801 34.6947 82.8587 35.096C82.7374 35.488 82.5554 35.838 82.3127 36.146C82.0794 36.4447 81.7761 36.6873 81.4027 36.874C81.0387 37.0513 80.5954 37.14 80.0727 37.14C79.5314 37.14 79.0741 37.042 78.7007 36.846C78.3367 36.6407 78.0381 36.3887 77.8047 36.09V39.338C77.8047 39.4313 77.7767 39.506 77.7207 39.562C77.6647 39.6273 77.5854 39.66 77.4827 39.66H76.8107ZM79.7787 36.006C80.2641 36.006 80.6421 35.9033 80.9127 35.698C81.1927 35.4833 81.3934 35.208 81.5147 34.872C81.6361 34.5267 81.7061 34.158 81.7247 33.766C81.7341 33.4953 81.7341 33.2247 81.7247 32.954C81.7061 32.562 81.6361 32.198 81.5147 31.862C81.3934 31.5167 81.1927 31.2413 80.9127 31.036C80.6421 30.8213 80.2641 30.714 79.7787 30.714C79.3214 30.714 78.9481 30.8213 78.6587 31.036C78.3787 31.2507 78.1687 31.526 78.0287 31.862C77.8981 32.1887 77.8234 32.5247 77.8047 32.87C77.7954 33.0193 77.7907 33.1967 77.7907 33.402C77.7907 33.6073 77.7954 33.7893 77.8047 33.948C77.8141 34.2747 77.8887 34.5967 78.0287 34.914C78.1781 35.2313 78.3974 35.4927 78.6867 35.698C78.9761 35.9033 79.3401 36.006 79.7787 36.006ZM91.2982 37.14C90.4862 37.14 89.8049 37.0187 89.2542 36.776C88.7036 36.524 88.2789 36.202 87.9802 35.81C87.6909 35.4087 87.5369 34.984 87.5182 34.536C87.5182 34.4613 87.5462 34.396 87.6022 34.34C87.6676 34.2747 87.7422 34.242 87.8262 34.242H88.5402C88.6522 34.242 88.7362 34.27 88.7922 34.326C88.8482 34.382 88.8856 34.4473 88.9042 34.522C88.9509 34.746 89.0629 34.97 89.2402 35.194C89.4269 35.4087 89.6836 35.5907 90.0102 35.74C90.3462 35.88 90.7756 35.95 91.2982 35.95C92.1009 35.95 92.6889 35.81 93.0622 35.53C93.4449 35.2407 93.6362 34.858 93.6362 34.382C93.6362 34.0553 93.5336 33.794 93.3282 33.598C93.1322 33.3927 92.8289 33.2107 92.4182 33.052C92.0076 32.8933 91.4756 32.7207 90.8222 32.534C90.1409 32.338 89.5762 32.1233 89.1282 31.89C88.6802 31.6567 88.3442 31.3673 88.1202 31.022C87.9056 30.6767 87.7982 30.238 87.7982 29.706C87.7982 29.202 87.9336 28.754 88.2042 28.362C88.4749 27.9607 88.8622 27.6433 89.3662 27.41C89.8796 27.1767 90.5002 27.06 91.2282 27.06C91.8069 27.06 92.3109 27.1393 92.7402 27.298C93.1789 27.4473 93.5429 27.6527 93.8322 27.914C94.1216 28.166 94.3409 28.4413 94.4902 28.74C94.6396 29.0293 94.7189 29.314 94.7282 29.594C94.7282 29.6593 94.7049 29.7247 94.6582 29.79C94.6116 29.846 94.5369 29.874 94.4342 29.874H93.6922C93.6269 29.874 93.5569 29.8553 93.4822 29.818C93.4169 29.7807 93.3656 29.7107 93.3282 29.608C93.2722 29.2253 93.0576 28.9033 92.6842 28.642C92.3109 28.3807 91.8256 28.25 91.2282 28.25C90.6216 28.25 90.1269 28.3667 89.7442 28.6C89.3709 28.8333 89.1842 29.1973 89.1842 29.692C89.1842 30.0093 89.2729 30.2753 89.4502 30.49C89.6276 30.6953 89.9076 30.8773 90.2902 31.036C90.6729 31.1947 91.1722 31.3627 91.7882 31.54C92.5349 31.7453 93.1462 31.9647 93.6222 32.198C94.0982 32.422 94.4482 32.7067 94.6722 33.052C94.9056 33.388 95.0222 33.822 95.0222 34.354C95.0222 34.942 94.8682 35.446 94.5602 35.866C94.2522 36.2767 93.8182 36.594 93.2582 36.818C92.7076 37.0327 92.0542 37.14 91.2982 37.14ZM99.3772 37C98.8546 37 98.4299 36.902 98.1032 36.706C97.7766 36.5007 97.5386 36.216 97.3892 35.852C97.2399 35.4787 97.1652 35.04 97.1652 34.536V30.84H96.0732C95.9799 30.84 95.9006 30.812 95.8352 30.756C95.7792 30.6907 95.7512 30.6113 95.7512 30.518V30.042C95.7512 29.9487 95.7792 29.874 95.8352 29.818C95.9006 29.7527 95.9799 29.72 96.0732 29.72H97.1652V27.382C97.1652 27.2887 97.1932 27.214 97.2492 27.158C97.3146 27.0927 97.3939 27.06 97.4872 27.06H98.1452C98.2386 27.06 98.3132 27.0927 98.3692 27.158C98.4346 27.214 98.4672 27.2887 98.4672 27.382V29.72H100.203C100.297 29.72 100.371 29.7527 100.427 29.818C100.493 29.874 100.525 29.9487 100.525 30.042V30.518C100.525 30.6113 100.493 30.6907 100.427 30.756C100.371 30.812 100.297 30.84 100.203 30.84H98.4672V34.438C98.4672 34.8767 98.5419 35.222 98.6912 35.474C98.8406 35.726 99.1066 35.852 99.4892 35.852H100.343C100.437 35.852 100.511 35.8847 100.567 35.95C100.633 36.006 100.665 36.0807 100.665 36.174V36.678C100.665 36.7713 100.633 36.8507 100.567 36.916C100.511 36.972 100.437 37 100.343 37H99.3772ZM104.846 37.14C104.137 37.14 103.544 37.0047 103.068 36.734C102.592 36.4633 102.228 36.09 101.976 35.614C101.724 35.1287 101.584 34.578 101.556 33.962C101.547 33.8033 101.542 33.6027 101.542 33.36C101.542 33.108 101.547 32.9073 101.556 32.758C101.584 32.1327 101.724 31.582 101.976 31.106C102.237 30.63 102.606 30.2567 103.082 29.986C103.558 29.7153 104.146 29.58 104.846 29.58C105.546 29.58 106.134 29.7153 106.61 29.986C107.086 30.2567 107.45 30.63 107.702 31.106C107.963 31.582 108.108 32.1327 108.136 32.758C108.145 32.9073 108.15 33.108 108.15 33.36C108.15 33.6027 108.145 33.8033 108.136 33.962C108.108 34.578 107.968 35.1287 107.716 35.614C107.464 36.09 107.1 36.4633 106.624 36.734C106.148 37.0047 105.555 37.14 104.846 37.14ZM104.846 36.062C105.425 36.062 105.887 35.88 106.232 35.516C106.577 35.1427 106.764 34.6013 106.792 33.892C106.801 33.752 106.806 33.5747 106.806 33.36C106.806 33.1453 106.801 32.968 106.792 32.828C106.764 32.1187 106.577 31.582 106.232 31.218C105.887 30.8447 105.425 30.658 104.846 30.658C104.267 30.658 103.801 30.8447 103.446 31.218C103.101 31.582 102.919 32.1187 102.9 32.828C102.891 32.968 102.886 33.1453 102.886 33.36C102.886 33.5747 102.891 33.752 102.9 33.892C102.919 34.6013 103.101 35.1427 103.446 35.516C103.801 35.88 104.267 36.062 104.846 36.062ZM110.085 37C109.992 37 109.912 36.972 109.847 36.916C109.791 36.8507 109.763 36.7713 109.763 36.678V30.056C109.763 29.9627 109.791 29.8833 109.847 29.818C109.912 29.7527 109.992 29.72 110.085 29.72H110.729C110.822 29.72 110.902 29.7527 110.967 29.818C111.032 29.8833 111.065 29.9627 111.065 30.056V30.672C111.252 30.3547 111.508 30.1167 111.835 29.958C112.162 29.7993 112.554 29.72 113.011 29.72H113.571C113.664 29.72 113.739 29.7527 113.795 29.818C113.851 29.874 113.879 29.9487 113.879 30.042V30.616C113.879 30.7093 113.851 30.784 113.795 30.84C113.739 30.896 113.664 30.924 113.571 30.924H112.731C112.227 30.924 111.83 31.0733 111.541 31.372C111.252 31.6613 111.107 32.058 111.107 32.562V36.678C111.107 36.7713 111.074 36.8507 111.009 36.916C110.944 36.972 110.864 37 110.771 37H110.085ZM117.703 37.14C116.741 37.14 115.976 36.846 115.407 36.258C114.837 35.6607 114.525 34.8487 114.469 33.822C114.459 33.7007 114.455 33.5467 114.455 33.36C114.455 33.164 114.459 33.0053 114.469 32.884C114.506 32.2213 114.66 31.6427 114.931 31.148C115.201 30.644 115.57 30.2567 116.037 29.986C116.513 29.7153 117.068 29.58 117.703 29.58C118.412 29.58 119.005 29.7293 119.481 30.028C119.966 30.3267 120.335 30.7513 120.587 31.302C120.839 31.8527 120.965 32.4967 120.965 33.234V33.472C120.965 33.5747 120.932 33.654 120.867 33.71C120.811 33.766 120.736 33.794 120.643 33.794H115.799C115.799 33.8033 115.799 33.822 115.799 33.85C115.799 33.878 115.799 33.9013 115.799 33.92C115.817 34.3027 115.901 34.662 116.051 34.998C116.2 35.3247 116.415 35.5907 116.695 35.796C116.975 36.0013 117.311 36.104 117.703 36.104C118.039 36.104 118.319 36.0527 118.543 35.95C118.767 35.8473 118.949 35.7353 119.089 35.614C119.229 35.4833 119.322 35.3853 119.369 35.32C119.453 35.1987 119.518 35.1287 119.565 35.11C119.611 35.082 119.686 35.068 119.789 35.068H120.461C120.554 35.068 120.629 35.096 120.685 35.152C120.75 35.1987 120.778 35.2687 120.769 35.362C120.759 35.502 120.685 35.6747 120.545 35.88C120.405 36.076 120.204 36.272 119.943 36.468C119.681 36.664 119.364 36.8273 118.991 36.958C118.617 37.0793 118.188 37.14 117.703 37.14ZM115.799 32.828H119.635V32.786C119.635 32.366 119.555 31.9927 119.397 31.666C119.247 31.3393 119.028 31.0827 118.739 30.896C118.449 30.7 118.104 30.602 117.703 30.602C117.301 30.602 116.956 30.7 116.667 30.896C116.387 31.0827 116.172 31.3393 116.023 31.666C115.873 31.9927 115.799 32.366 115.799 32.786V32.828Z" fill="#333333"/>
<defs>
<filter id="filter0_d_1_32" x="0" y="0" width="162" height="50" filterUnits="userSpaceOnUse" color-interpolation-filters="sRGB">
<feFlood flood-opacity="0" result="BackgroundImageFix"/>
<feColorMatrix in="SourceAlpha" type="matrix" values="0 0 0 0 0 0 0 0 0 0 0 0 0 0 0 0 0 0 127 0" result="hardAlpha"/>
<feOffset/>
<feGaussianBlur stdDeviation="0.5"/>
<feComposite in2="hardAlpha" operator="out"/>
<feColorMatrix type="matrix" values="0 0 0 0 0 0 0 0 0 0 0 0 0 0 0 0 0 0 0.25 0"/>
<feBlend mode="normal" in2="BackgroundImageFix" result="effect1_dropShadow_1_32"/>
<feBlend mode="normal" in="SourceGraphic" in2="effect1_dropShadow_1_32" result="shape"/>
</filter>
</defs>
</svg>
