<svg width="50" height="50" viewBox="0 0 50 50" fill="none" xmlns="http://www.w3.org/2000/svg">
<g filter="url(#filter0_d_56_96)">
<path fill-rule="evenodd" clip-rule="evenodd" d="M9 1C4.58172 1 1 4.58172 1 9V41C1 45.4183 4.58172 49 9 49H41C45.4183 49 49 45.4183 49 41V9C49 4.58172 45.4183 1 41 1H9ZM34.265 19.9081C34.2971 19.8869 34.3191 19.8723 34.3293 19.8643C32.5907 17.3524 29.9493 17.2848 29.2141 17.2848C28.0894 17.2848 27.0827 17.6869 26.2366 18.0248C25.6234 18.2697 25.0945 18.4809 24.6664 18.4809C24.1931 18.4809 23.6513 18.2604 23.0468 18.0143C22.2838 17.7037 21.4208 17.3524 20.4695 17.3524C17.2605 17.3524 14 20.0333 14 25.0882C14 28.2397 15.2046 31.5603 16.6956 33.6977C17.9828 35.5179 19.1023 37 20.7068 37C21.4676 37 22.0254 36.7615 22.612 36.5106C23.2625 36.2324 23.9486 35.9391 24.9862 35.9391C26.035 35.9391 26.6617 36.2146 27.2659 36.4803C27.8283 36.7275 28.3711 36.9662 29.2167 36.9662C30.9708 36.9662 32.1238 35.367 33.2279 33.7653C34.466 31.9451 34.9845 30.1587 35 30.0755C34.8994 30.0417 31.5383 28.6766 31.5383 24.8178C31.5383 21.7106 33.8296 20.1959 34.265 19.9081ZM29.6629 11.5227C29.6629 12.854 29.0954 14.1853 28.2932 15.1448C27.442 16.2083 25.969 16.9988 24.7979 16.9988C24.6638 16.9988 24.5297 16.9806 24.4471 16.965C24.4316 16.9 24.3981 16.6972 24.3981 16.4943C24.3981 15.1448 25.0843 13.8135 25.8194 12.971C26.7558 11.8763 28.3087 11.0494 29.6139 11C29.6475 11.1508 29.6629 11.338 29.6629 11.5227Z" fill="white"/>
</g>
<defs>
<filter id="filter0_d_56_96" x="0" y="0" width="50" height="50" filterUnits="userSpaceOnUse" color-interpolation-filters="sRGB">
<feFlood flood-opacity="0" result="BackgroundImageFix"/>
<feColorMatrix in="SourceAlpha" type="matrix" values="0 0 0 0 0 0 0 0 0 0 0 0 0 0 0 0 0 0 127 0" result="hardAlpha"/>
<feOffset/>
<feGaussianBlur stdDeviation="0.5"/>
<feComposite in2="hardAlpha" operator="out"/>
<feColorMatrix type="matrix" values="0 0 0 0 0 0 0 0 0 0 0 0 0 0 0 0 0 0 0.25 0"/>
<feBlend mode="normal" in2="BackgroundImageFix" result="effect1_dropShadow_56_96"/>
<feBlend mode="normal" in="SourceGraphic" in2="effect1_dropShadow_56_96" result="shape"/>
</filter>
</defs>
</svg>
