<svg width="188" height="56" viewBox="0 0 188 56" fill="none" xmlns="http://www.w3.org/2000/svg">
<rect width="188" height="56" rx="5" fill="#0D0E0F"/>
<path d="M115.238 25.551V28.7484H113.208V30.8452H115.238V37.9698C115.238 40.4026 116.353 41.3757 119.158 41.3757C119.65 41.3757 120.12 41.3178 120.531 41.2482V39.1746C120.179 39.2093 119.956 39.2325 119.568 39.2325C118.313 39.2325 117.761 38.6533 117.761 37.3326V30.8452H120.531V28.7484H117.761V25.551H115.238Z" fill="white"/>
<path d="M127.676 41.5494C131.408 41.5494 133.696 39.0819 133.696 34.9925C133.696 30.9263 131.396 28.4472 127.676 28.4472C123.944 28.4472 121.644 30.9263 121.644 34.9925C121.644 39.0819 123.932 41.5494 127.676 41.5494ZM127.676 39.3368C125.481 39.3368 124.249 37.7497 124.249 34.9925C124.249 32.2585 125.481 30.6599 127.676 30.6599C129.858 30.6599 131.102 32.2585 131.102 34.9925C131.102 37.7381 129.858 39.3368 127.676 39.3368Z" fill="white"/>
<path d="M135.654 41.3062H138.177V33.8572C138.177 32.0848 139.527 30.8915 141.44 30.8915C141.886 30.8915 142.637 30.9726 142.848 31.0421V28.5862C142.578 28.5167 142.097 28.4819 141.721 28.4819C140.055 28.4819 138.635 29.3855 138.271 30.6251H138.083V28.6905H135.654V41.3062Z" fill="white"/>
<path d="M149.113 30.5672C150.979 30.5672 152.199 31.8531 152.258 33.8341H145.803C145.944 31.8647 147.247 30.5672 149.113 30.5672ZM152.246 37.9003C151.777 38.885 150.732 39.4295 149.207 39.4295C147.188 39.4295 145.885 38.0277 145.803 35.815V35.676H154.828V34.8072C154.828 30.8452 152.68 28.4472 149.124 28.4472C145.522 28.4472 143.233 31.0074 143.233 35.0389C143.233 39.0703 145.475 41.5494 149.136 41.5494C152.058 41.5494 154.1 40.1593 154.675 37.9003H152.246Z" fill="white"/>
<path d="M98.6914 36.6474C98.8861 39.7452 101.501 41.7264 105.394 41.7264C109.554 41.7264 112.157 39.6492 112.157 36.3352C112.157 33.7296 110.673 32.2888 107.072 31.4603L105.138 30.992C102.851 30.4637 101.927 29.7553 101.927 28.5185C101.927 26.9576 103.362 25.937 105.515 25.937C107.559 25.937 108.97 26.9336 109.225 28.5305H111.877C111.719 25.6128 109.116 23.5596 105.552 23.5596C101.72 23.5596 99.1658 25.6128 99.1658 28.6986C99.1658 31.2442 100.613 32.7571 103.788 33.4895L106.05 34.0298C108.374 34.5701 109.395 35.3626 109.395 36.6834C109.395 38.2203 107.79 39.337 105.6 39.337C103.253 39.337 101.623 38.2924 101.392 36.6474H98.6914Z" fill="white"/>
<path d="M72.5543 28.4819C70.8174 28.4819 69.3152 29.3392 68.5407 30.7757H68.3529V28.6905H65.9237V45.4998H68.4468V39.3947H68.6463C69.3152 40.7269 70.7587 41.5147 72.5777 41.5147C75.805 41.5147 77.8587 39.0008 77.8587 34.9925C77.8587 30.9842 75.805 28.4819 72.5543 28.4819ZM71.8384 39.2788C69.726 39.2788 68.3999 37.6338 68.3999 35.0041C68.3999 32.3628 69.726 30.7178 71.8501 30.7178C73.986 30.7178 75.2652 32.328 75.2652 34.9925C75.2652 37.6686 73.986 39.2788 71.8384 39.2788Z" fill="white"/>
<path d="M86.6876 28.4819C84.9508 28.4819 83.4486 29.3392 82.6741 30.7757H82.4863V28.6905H80.057V45.4998H82.5802V39.3947H82.7797C83.4486 40.7269 84.8921 41.5147 86.7111 41.5147C89.9384 41.5147 91.9921 39.0008 91.9921 34.9925C91.9921 30.9842 89.9384 28.4819 86.6876 28.4819ZM85.9717 39.2788C83.8593 39.2788 82.5332 37.6338 82.5332 35.0041C82.5332 32.3628 83.8593 30.7178 85.9835 30.7178C88.1194 30.7178 89.3985 32.328 89.3985 34.9925C89.3985 37.6686 88.1194 39.2788 85.9717 39.2788Z" fill="white"/>
<path d="M61.3967 41.3062H64.2916L57.9544 23.9798H55.023L48.6858 41.3062H51.4834L53.1012 36.7074H59.7911L61.3967 41.3062ZM56.3488 27.1257H56.5556L59.0978 34.4501H53.7945L56.3488 27.1257Z" fill="white"/>
<path d="M50.3806 10.9113V19.2696H53.4377C55.9609 19.2696 57.4219 17.7346 57.4219 15.0644C57.4219 12.4346 55.9491 10.9113 53.4377 10.9113H50.3806ZM51.695 12.0929H53.291C55.0455 12.0929 56.0841 13.1934 56.0841 15.0817C56.0841 16.999 55.0631 18.088 53.291 18.088H51.695V12.0929Z" fill="white"/>
<path d="M61.8967 19.3912C63.7627 19.3912 64.9069 18.1575 64.9069 16.1128C64.9069 14.0797 63.7568 12.8401 61.8967 12.8401C60.0308 12.8401 58.8807 14.0797 58.8807 16.1128C58.8807 18.1575 60.0249 19.3912 61.8967 19.3912ZM61.8967 18.2849C60.7994 18.2849 60.1833 17.4913 60.1833 16.1128C60.1833 14.7458 60.7994 13.9464 61.8967 13.9464C62.9881 13.9464 63.6101 14.7458 63.6101 16.1128C63.6101 17.4856 62.9881 18.2849 61.8967 18.2849Z" fill="white"/>
<path d="M74.6509 12.9617H73.3893L72.251 17.7752H72.1512L70.8369 12.9617H69.6281L68.3137 17.7752H68.2198L67.0756 12.9617H65.7964L67.5568 19.2696H68.8536L70.1679 14.6241H70.2677L71.5879 19.2696H72.8965L74.6509 12.9617Z" fill="white"/>
<path d="M76.1038 19.2696H77.3653V15.5799C77.3653 14.5952 77.958 13.9812 78.891 13.9812C79.8239 13.9812 80.2699 14.4851 80.2699 15.4988V19.2696H81.5315V15.186C81.5315 13.6858 80.7452 12.8401 79.3193 12.8401C78.357 12.8401 77.7233 13.2629 77.4123 13.9638H77.3184V12.9617H76.1038V19.2696Z" fill="white"/>
<path d="M83.5183 19.2696H84.7799V10.5H83.5183V19.2696Z" fill="white"/>
<path d="M89.5246 19.3912C91.3905 19.3912 92.5347 18.1575 92.5347 16.1128C92.5347 14.0797 91.3846 12.8401 89.5246 12.8401C87.6586 12.8401 86.5085 14.0797 86.5085 16.1128C86.5085 18.1575 87.6527 19.3912 89.5246 19.3912ZM89.5246 18.2849C88.4273 18.2849 87.8112 17.4913 87.8112 16.1128C87.8112 14.7458 88.4273 13.9464 89.5246 13.9464C90.616 13.9464 91.2379 14.7458 91.2379 16.1128C91.2379 17.4856 90.616 18.2849 89.5246 18.2849Z" fill="white"/>
<path d="M96.2936 18.3254C95.6071 18.3254 95.1083 17.9953 95.1083 17.4276C95.1083 16.8716 95.5073 16.5762 96.3875 16.5182L97.9483 16.4198V16.9469C97.9483 17.7288 97.2442 18.3254 96.2936 18.3254ZM95.9709 19.3739C96.81 19.3739 97.5083 19.0147 97.8897 18.3834H97.9894V19.2696H99.204V14.9601C99.204 13.6279 98.3004 12.8401 96.6985 12.8401C95.2492 12.8401 94.2164 13.5352 94.0873 14.6184H95.3078C95.4487 14.1723 95.9357 13.9175 96.6398 13.9175C97.5024 13.9175 97.9483 14.294 97.9483 14.9601V15.5046L96.2173 15.603C94.6976 15.6957 93.8409 16.3503 93.8409 17.4856C93.8409 18.6382 94.7387 19.3739 95.9709 19.3739Z" fill="white"/>
<path d="M103.485 19.3739C104.365 19.3739 105.111 18.9626 105.492 18.2733H105.592V19.2696H106.8V10.5H105.539V13.9638H105.445C105.099 13.2687 104.359 12.8575 103.485 12.8575C101.872 12.8575 100.833 14.1202 100.833 16.1128C100.833 18.1111 101.86 19.3739 103.485 19.3739ZM103.843 13.9754C104.899 13.9754 105.562 14.8037 105.562 16.1186C105.562 17.4392 104.905 18.2559 103.843 18.2559C102.775 18.2559 102.136 17.4508 102.136 16.1128C102.136 14.7863 102.781 13.9754 103.843 13.9754Z" fill="white"/>
<path d="M114.981 19.3912C116.847 19.3912 117.991 18.1575 117.991 16.1128C117.991 14.0797 116.841 12.8401 114.981 12.8401C113.115 12.8401 111.965 14.0797 111.965 16.1128C111.965 18.1575 113.11 19.3912 114.981 19.3912ZM114.981 18.2849C113.884 18.2849 113.268 17.4913 113.268 16.1128C113.268 14.7458 113.884 13.9464 114.981 13.9464C116.073 13.9464 116.695 14.7458 116.695 16.1128C116.695 17.4856 116.073 18.2849 114.981 18.2849Z" fill="white"/>
<path d="M119.661 19.2696H120.923V15.5799C120.923 14.5952 121.516 13.9812 122.449 13.9812C123.382 13.9812 123.828 14.4851 123.828 15.4988V19.2696H125.089V15.186C125.089 13.6858 124.303 12.8401 122.877 12.8401C121.915 12.8401 121.281 13.2629 120.97 13.9638H120.876V12.9617H119.661V19.2696Z" fill="white"/>
<path d="M130.899 11.392V12.9907H129.884V14.0391H130.899V17.6014C130.899 18.8178 131.457 19.3043 132.859 19.3043C133.106 19.3043 133.34 19.2754 133.546 19.2406V18.2038C133.37 18.2212 133.258 18.2328 133.065 18.2328C132.437 18.2328 132.161 17.9431 132.161 17.2828V14.0391H133.546V12.9907H132.161V11.392H130.899Z" fill="white"/>
<path d="M135.239 19.2696H136.501V15.5857C136.501 14.6299 137.076 13.987 138.109 13.987C139 13.987 139.476 14.4967 139.476 15.5046V19.2696H140.737V15.1976C140.737 13.6974 139.898 12.8459 138.537 12.8459C137.575 12.8459 136.9 13.2687 136.589 13.9754H136.489V10.5H135.239V19.2696Z" fill="white"/>
<path d="M145.288 13.9001C146.221 13.9001 146.832 14.543 146.861 15.5335H143.634C143.704 14.5488 144.355 13.9001 145.288 13.9001ZM146.855 17.5666C146.62 18.059 146.098 18.3312 145.335 18.3312C144.326 18.3312 143.675 17.6304 143.634 16.524V16.4545H148.146V16.0201C148.146 14.0391 147.072 12.8401 145.294 12.8401C143.493 12.8401 142.349 14.1202 142.349 16.1359C142.349 18.1517 143.469 19.3912 145.3 19.3912C146.761 19.3912 147.782 18.6962 148.07 17.5666H146.855Z" fill="white"/>
<path d="M34.9956 27.0875C35.0262 24.7414 36.3025 22.5216 38.3273 21.2928C37.05 19.492 34.9105 18.3503 32.6846 18.2815C30.3105 18.0355 28.009 19.6839 26.7992 19.6839C25.566 19.6839 23.7033 18.3059 21.6975 18.3467C19.083 18.4301 16.6457 19.8974 15.3737 22.1537C12.6395 26.8268 14.679 33.6947 17.2982 37.4721C18.6086 39.3217 20.1402 41.3879 22.1441 41.3146C24.1051 41.2343 24.8375 40.0802 27.2046 40.0802C29.5498 40.0802 30.2369 41.3146 32.2816 41.268C34.3858 41.2343 35.7116 39.4101 36.9761 37.5429C37.9176 36.225 38.6421 34.7684 39.1228 33.227C36.6499 32.1945 34.9985 29.7379 34.9956 27.0875Z" fill="white"/>
<path d="M31.1336 15.7973C32.2809 14.4377 32.8462 12.6902 32.7093 10.9258C30.9564 11.1075 29.3373 11.9345 28.1745 13.242C27.0374 14.5194 26.4456 16.2362 26.5575 17.9331C28.311 17.951 30.0348 17.1464 31.1336 15.7973Z" fill="white"/>
</svg>
