<svg width="20" height="19" viewBox="0 0 20 19" fill="none" xmlns="http://www.w3.org/2000/svg">
<path d="M15.4967 3.26758H0.817048C0.365805 3.26758 0 3.63338 0 4.08463V17.5223C0 17.9736 0.365805 18.3394 0.817048 18.3394H15.4967C15.9479 18.3394 16.3137 17.9736 16.3137 17.5223V4.08463C16.3137 3.63338 15.9479 3.26758 15.4967 3.26758Z" fill="#777F89"/>
<path d="M18.7378 0H3.7041V1.6341H17.9207V14.6252H19.5548V0.817048C19.5548 0.600353 19.4687 0.392534 19.3155 0.239308C19.1623 0.086082 18.9545 0 18.7378 0Z" fill="#777F89"/>
<path d="M2 5.00019L14.5 5V16.5L2 16.5002V5.00019Z" fill="#EEEEF0"/>
</svg>
