<svg width="30" height="30" viewBox="0 0 30 30" fill="none" xmlns="http://www.w3.org/2000/svg">
<path d="M24.7465 5.6978C22.9539 4.87196 21.0316 4.26352 19.0218 3.91504C18.9852 3.90831 18.9486 3.92512 18.9297 3.95873C18.6825 4.40022 18.4087 4.97616 18.2169 5.42886C16.0552 5.10391 13.9045 5.10391 11.7871 5.42886C11.5953 4.9661 11.3115 4.40022 11.0632 3.95873C11.0443 3.92624 11.0078 3.90943 10.9712 3.91504C8.96239 4.2624 7.04011 4.87085 5.24641 5.6978C5.23088 5.70452 5.21757 5.71574 5.20874 5.73029C1.56257 11.1996 0.56373 16.5345 1.05373 21.8032C1.05594 21.829 1.07036 21.8536 1.09031 21.8693C3.49595 23.6431 5.82622 24.7199 8.11322 25.4337C8.14982 25.4449 8.1886 25.4315 8.21189 25.4012C8.75288 24.6594 9.23513 23.8773 9.6486 23.0548C9.67301 23.0067 9.64971 22.9495 9.59984 22.9304C8.83492 22.6391 8.10656 22.2839 7.40593 21.8805C7.35051 21.848 7.34608 21.7684 7.39706 21.7303C7.5445 21.6194 7.69198 21.504 7.83276 21.3875C7.85823 21.3662 7.89372 21.3617 7.92367 21.3751C12.5265 23.4851 17.5096 23.4851 22.0581 21.3751C22.0881 21.3606 22.1236 21.3651 22.1502 21.3864C22.291 21.5029 22.4384 21.6194 22.587 21.7303C22.638 21.7684 22.6346 21.848 22.5792 21.8805C21.8786 22.2917 21.1502 22.6391 20.3842 22.9293C20.3343 22.9484 20.3121 23.0067 20.3365 23.0548C20.7589 23.8762 21.2411 24.6583 21.7721 25.4001C21.7943 25.4315 21.8342 25.4449 21.8708 25.4337C24.1689 24.7199 26.4992 23.6431 28.9048 21.8693C28.9259 21.8536 28.9392 21.8301 28.9414 21.8043C29.5278 15.7131 27.9592 10.422 24.7831 5.73141C24.7753 5.71574 24.762 5.70452 24.7465 5.6978ZM10.336 18.5951C8.95019 18.5951 7.80836 17.3177 7.80836 15.749C7.80836 14.1802 8.92805 12.9028 10.336 12.9028C11.7549 12.9028 12.8857 14.1914 12.8635 15.749C12.8635 17.3177 11.7438 18.5951 10.336 18.5951ZM19.6813 18.5951C18.2956 18.5951 17.1538 17.3177 17.1538 15.749C17.1538 14.1802 18.2734 12.9028 19.6813 12.9028C21.1004 12.9028 22.2311 14.1914 22.209 15.749C22.209 17.3177 21.1004 18.5951 19.6813 18.5951Z" fill="white"/>
</svg>
