<svg width="30" height="30" viewBox="0 0 30 30" fill="none" xmlns="http://www.w3.org/2000/svg">
<path fill-rule="evenodd" clip-rule="evenodd" d="M26.2492 14.4316C26.249 14.6209 26.2487 14.8104 26.2487 15C26.2487 15.2121 26.2491 15.4239 26.2494 15.6355C26.2514 16.974 26.2533 18.3047 26.1756 19.6438C26.0883 21.445 25.6802 23.0407 24.3603 24.3607C23.0432 25.6778 21.4447 26.0887 19.6435 26.176C18.282 26.2526 16.9293 26.2511 15.5681 26.2496C15.3788 26.2494 15.1894 26.2492 14.9998 26.2492C14.8106 26.2492 14.6215 26.2494 14.4325 26.2496H14.4324C13.073 26.2511 11.72 26.2526 10.3561 26.176C8.55493 26.0887 6.9592 25.6807 5.63927 24.3607C4.32215 23.0436 3.91126 21.445 3.82401 19.6438C3.74741 18.2822 3.74891 16.9272 3.75042 15.5673C3.75063 15.3783 3.75084 15.1892 3.75084 15C3.75084 14.8108 3.75063 14.6217 3.75042 14.4328C3.74891 13.0733 3.74741 11.7202 3.82401 10.3562C3.91126 8.55502 4.31934 6.95925 5.63927 5.6393C6.95638 4.32216 8.55493 3.91126 10.3561 3.82401C11.7175 3.74741 13.0703 3.74891 14.4315 3.75042C14.6208 3.75063 14.8102 3.75084 14.9998 3.75084C15.189 3.75084 15.3781 3.75063 15.567 3.75042C16.9264 3.74891 18.2795 3.74741 19.6435 3.82401C21.4447 3.91126 23.0404 4.31935 24.3603 5.6393C25.6774 6.95644 26.0883 8.55502 26.1756 10.3562C26.2522 11.7177 26.2507 13.0704 26.2492 14.4316ZM11.2454 15.0002C11.2454 12.9344 12.9312 11.2486 14.9969 11.2486C17.0627 11.2486 18.7485 12.9344 18.7485 15.0002C18.7485 17.0659 17.0627 18.7518 14.9969 18.7518C12.9312 18.7518 11.2454 17.0659 11.2454 15.0002ZM14.9969 20.7721C11.8026 20.7721 9.22462 18.1942 9.22462 14.9998C9.22462 11.8055 11.8026 9.22747 14.9969 9.22747C18.1911 9.22747 20.7691 11.8055 20.7691 14.9998C20.7691 18.1942 18.1911 20.7721 14.9969 20.7721ZM19.6575 8.99118C19.6575 9.737 20.2598 10.3393 21.0056 10.3393C21.3633 10.3397 21.7064 10.1978 21.9593 9.94493C22.2122 9.69201 22.3541 9.34886 22.3537 8.99118C22.3537 8.24537 21.7514 7.64308 21.0056 7.64308C20.2598 7.64308 19.6575 8.24537 19.6575 8.99118Z" fill="white"/>
</svg>
