<svg version="1.1" id="Layer_1" xmlns="http://www.w3.org/2000/svg" xmlns:xlink="http://www.w3.org/1999/xlink" x="0px" y="0px"
	 width="100%" viewBox="0 0 1281 198" enable-background="new 0 0 1281 198" xml:space="preserve">
<path fill="#010101" opacity="1.000000" stroke="none" 
	d="
M1282.000000,126.999985 
	C1282.000000,150.991898 1282.000000,174.983795 1282.000000,199.000000 
	C892.306458,199.000000 502.612946,199.000000 112.468597,198.594177 
	C112.847778,197.794800 113.650551,197.134872 114.511765,197.046921 
	C133.217545,195.136307 151.008652,190.278610 167.112778,180.316132 
	C181.774811,171.245743 192.913437,159.312424 195.497086,141.504593 
	C196.396378,135.306351 195.962280,128.901611 195.974548,122.590843 
	C195.991760,113.738274 193.459076,105.626350 188.706055,98.144623 
	C181.027390,86.057617 169.754745,78.341377 157.215225,72.235367 
	C154.248856,70.790924 153.064896,69.501183 153.862640,65.883644 
	C156.031906,56.046707 157.422394,46.040092 159.498062,36.179985 
	C162.904266,19.999441 158.676147,10.881784 143.965332,3.397167 
	C143.121979,2.968086 142.646622,1.815741 142.000000,1.000000 
	C522.000000,1.000000 902.000000,1.000000 1282.000000,1.000000 
	C1282.000000,36.437702 1282.000000,71.759148 1281.699341,107.880714 
	C1280.828369,107.586342 1280.030884,106.551697 1279.724365,105.387741 
	C1277.476685,96.854370 1273.073730,89.922783 1265.328857,85.340912 
	C1248.755981,75.536247 1214.075928,77.344177 1198.602661,88.946625 
	C1197.774048,89.567856 1197.146973,91.026443 1197.144043,92.097252 
	C1197.066406,120.401497 1197.032837,148.706161 1197.127197,177.010315 
	C1197.145874,182.651230 1198.736816,183.952927 1204.316040,183.998657 
	C1207.146362,184.021851 1209.977173,183.980759 1212.807373,184.006668 
	C1224.372559,184.112534 1225.706543,185.461258 1225.479126,171.471786 
	C1225.369507,164.722885 1225.460327,157.970734 1225.460327,150.619385 
	C1227.441772,151.338120 1228.487061,151.674850 1229.499756,152.091080 
	C1241.008545,156.821747 1252.441406,156.417404 1263.490601,150.922424 
	C1271.753906,146.812912 1276.599121,139.732437 1279.100830,130.895279 
	C1279.512817,129.439911 1281.006226,128.290680 1282.000000,126.999985 
M286.476715,120.002060 
	C288.808807,120.001740 291.160431,120.198532 293.469879,119.969597 
	C310.422028,118.289124 321.878021,112.657913 325.485931,95.781464 
	C326.577484,90.675636 326.434601,85.172462 326.051544,79.909927 
	C324.915192,64.297493 316.590179,53.859055 301.134369,52.273865 
	C283.342010,50.449024 265.309631,50.914455 247.378464,50.525623 
	C242.460129,50.418972 240.934174,53.558304 240.968994,58.054493 
	C241.056656,69.381073 240.997971,80.708786 240.997971,92.036049 
	C240.997971,109.859825 240.973663,127.683662 241.012009,145.507355 
	C241.024445,151.287079 242.509003,152.908936 247.755875,152.985413 
	C252.918671,153.060684 258.084778,153.074936 263.246948,152.981171 
	C268.448242,152.886688 269.948822,151.321976 269.989349,146.019241 
	C270.045380,138.690262 270.083130,131.359268 269.965302,124.031769 
	C269.917938,121.087158 270.850647,119.766579 273.997192,119.949524 
	C277.815552,120.171524 281.656708,120.002113 286.476715,120.002060 
M933.991638,91.629921 
	C930.856140,90.151138 927.562500,88.930588 924.623108,87.131371 
	C920.501465,84.608521 918.596252,80.246178 920.292847,76.020996 
	C921.446777,73.147369 924.783936,70.164406 927.764465,69.249725 
	C931.865723,67.991150 936.717224,67.818054 940.949219,68.666542 
	C947.151184,69.909988 953.089172,72.470016 959.492859,74.585709 
	C961.110229,72.081535 962.992249,69.200462 964.841248,66.298355 
	C969.527954,58.942467 969.287659,57.438366 960.969421,53.904041 
	C944.703918,46.992996 927.896851,45.861271 910.945435,51.023239 
	C899.694519,54.449326 892.479187,61.953262 891.090271,73.986870 
	C889.647949,86.482979 894.257690,96.086479 905.623657,102.057358 
	C908.837646,103.745766 912.054138,105.438263 915.338440,106.982147 
	C922.483643,110.340942 929.777771,113.400536 936.802917,116.989738 
	C940.637573,118.948898 942.536377,122.637421 941.686462,127.004776 
	C940.843994,131.333878 937.712463,133.982239 933.535339,134.782745 
	C930.321045,135.398727 926.936157,135.333603 923.635315,135.249268 
	C913.858276,134.999435 904.947144,131.660629 896.159912,126.809708 
	C893.984924,130.216309 891.936096,133.390945 889.921814,136.587341 
	C885.624268,143.407135 885.765503,144.544510 893.352051,147.890121 
	C911.675415,155.970566 930.838806,157.551819 950.117126,152.729431 
	C962.185181,149.710632 969.695557,141.241226 970.631836,128.380020 
	C971.467529,116.900635 967.337646,107.418274 956.802490,101.887383 
	C949.662415,98.138962 942.084778,95.224129 933.991638,91.629921 
M709.394775,152.363968 
	C716.355103,152.561783 723.318420,152.961365 730.274292,152.858093 
	C733.054199,152.816833 735.208801,151.146255 735.218933,147.791656 
	C735.229919,144.133621 735.414917,140.476379 735.450012,136.818054 
	C735.493347,132.302979 735.460388,127.787163 735.460388,123.271667 
	C738.085999,124.467133 739.364929,125.743881 740.429382,127.179634 
	C746.059814,134.774216 751.574524,142.455597 757.290039,149.984863 
	C758.278931,151.287491 760.011658,152.809860 761.447571,152.858841 
	C769.601013,153.137009 777.769897,153.081116 785.930725,152.956497 
	C788.788574,152.912857 789.998291,151.451508 788.003845,148.817856 
	C786.406921,146.709213 784.630859,144.735886 782.926147,142.709381 
	C775.492981,133.872879 768.056824,125.038933 760.520508,116.083702 
	C768.807312,106.635826 776.817566,97.603363 784.685059,88.448349 
	C786.244324,86.633850 787.256287,84.348961 789.254028,81.081482 
	C784.070984,81.081482 780.536682,81.553162 777.171753,80.998138 
	C764.056396,78.834854 754.574036,83.144119 748.158691,95.127876 
	C745.369507,100.338051 740.870972,104.633148 737.148804,109.343857 
	C736.719666,109.169273 736.290527,108.994698 735.861389,108.820122 
	C735.727844,107.097076 735.481995,105.374275 735.478394,103.650955 
	C735.446777,88.658134 735.527893,73.664757 735.426758,58.672543 
	C735.380127,51.764435 734.106628,50.492939 727.277771,50.276966 
	C722.622498,50.129734 717.955078,50.311325 713.294373,50.408085 
	C708.633484,50.504848 706.664490,52.622570 706.694824,57.586113 
	C706.874878,87.071030 706.748718,116.557747 706.863403,146.043320 
	C706.870972,147.998978 708.018433,149.950195 709.394775,152.363968 
M1043.857666,91.644592 
	C1043.053589,88.896790 1041.444336,87.543541 1038.369141,87.858284 
	C1035.730469,88.128365 1032.974243,87.557030 1030.401489,88.047485 
	C1028.824951,88.347984 1026.809448,89.637642 1026.182617,91.022438 
	C1024.142944,95.528587 1022.706238,100.303955 1020.933289,104.935822 
	C1019.214661,109.425781 1017.367310,113.866486 1015.576416,118.328819 
	C1015.128540,118.281967 1014.680664,118.235123 1014.232788,118.188271 
	C1013.812805,117.068810 1013.268677,115.979073 1012.992493,114.825203 
	C1010.616394,104.897064 1008.353516,94.941101 1005.872620,85.039558 
	C1005.522278,83.641220 1004.219727,81.430199 1003.288635,81.394356 
	C995.600647,81.098442 987.896362,81.227005 979.695190,81.227005 
	C985.656189,101.255898 991.367798,120.384987 997.039795,139.525833 
	C1001.031433,152.996231 1001.017639,152.690109 1015.059082,153.152054 
	C1020.961609,153.346237 1023.485840,151.226868 1025.120117,145.784943 
	C1027.556641,137.671509 1030.869873,129.821335 1034.246338,120.677994 
	C1035.623291,123.203468 1036.531128,124.529358 1037.105469,125.986618 
	C1038.682129,129.986786 1040.050171,134.069229 1041.628418,138.068680 
	C1043.562866,142.970718 1044.350952,149.721634 1047.990356,152.165527 
	C1051.703979,154.659409 1058.294312,152.650223 1063.586060,153.086960 
	C1067.413330,153.402847 1068.926025,151.618744 1069.893799,148.362442 
	C1074.845093,131.704269 1079.912354,115.080605 1084.873535,98.425323 
	C1086.531494,92.859520 1087.995483,87.235870 1089.702393,81.082687 
	C1081.769409,81.082687 1074.782104,80.904121 1067.819458,81.238426 
	C1066.481079,81.302689 1064.516724,83.157501 1064.081177,84.568932 
	C1062.429810,89.921104 1061.324585,95.439804 1059.945435,100.878548 
	C1058.478882,106.661827 1056.933105,112.425034 1055.421997,118.197006 
	C1054.840698,118.197334 1054.259521,118.197662 1053.678345,118.197990 
	C1050.452148,109.608955 1047.226074,101.019928 1043.857666,91.644592 
M1123.606201,83.002655 
	C1119.406128,85.594231 1114.675537,87.607140 1111.103027,90.883080 
	C1099.117798,101.873596 1095.509766,121.367584 1101.710571,137.337250 
	C1105.864624,148.035812 1113.846436,153.802582 1124.892578,154.891205 
	C1135.992920,155.985214 1146.781494,154.741104 1155.906128,145.603607 
	C1157.735474,154.902374 1164.512939,152.942551 1170.404297,153.000351 
	C1172.568237,153.021591 1174.745728,152.850204 1176.893311,153.038116 
	C1180.507935,153.354385 1181.989258,151.981812 1181.967285,148.233902 
	C1181.856812,129.257782 1181.978882,110.280098 1181.799683,91.305031 
	C1181.785156,89.774155 1180.483887,87.519386 1179.151978,86.848320 
	C1161.486572,77.947433 1143.218018,76.118752 1123.606201,83.002655 
M627.905273,85.298416 
	C624.544739,87.953316 620.687073,90.173012 617.913208,93.341492 
	C608.049927,104.607880 606.335449,118.055573 609.422668,132.105087 
	C612.543457,146.307358 620.504150,153.277588 634.090027,154.832703 
	C645.081604,156.090866 656.032471,155.088806 664.719482,145.787125 
	C665.669006,147.293793 666.634949,148.278656 666.954956,149.441330 
	C667.773315,152.414505 669.631348,153.178162 672.517639,153.056030 
	C677.168701,152.859238 681.837280,152.900757 686.492554,153.039444 
	C689.544128,153.130356 691.072266,152.264038 691.053650,148.839844 
	C690.948792,129.537094 691.056274,110.233040 690.890869,90.931152 
	C690.878967,89.550034 689.593201,87.524780 688.349426,86.907227 
	C668.753845,77.177689 648.829590,75.594765 627.905273,85.298416 
M416.026215,140.472137 
	C416.026215,124.496124 415.897491,108.518280 416.125183,92.545517 
	C416.176147,88.972031 414.942841,87.305786 411.847687,85.833443 
	C397.398499,78.960030 382.273438,77.235275 366.754883,80.263390 
	C357.549164,82.059692 348.976624,85.958458 342.818268,93.449974 
	C332.042694,106.558212 330.943481,121.455399 335.983185,137.024857 
	C339.535583,147.999451 349.775299,154.731506 361.339935,155.065186 
	C371.864258,155.368881 381.746155,154.054184 390.483917,145.478958 
	C391.987396,154.556076 398.276306,153.155487 404.000854,153.003906 
	C404.167175,152.999496 404.333679,153.003342 404.500092,153.003342 
	C416.026215,153.003357 416.026215,153.003357 416.026215,140.472137 
M503.133484,153.000809 
	C509.099274,152.512909 510.009216,151.592377 510.016754,145.757065 
	C510.035065,131.597321 510.081604,117.437141 509.996368,103.277855 
	C509.923065,91.096214 503.512268,82.794579 491.648254,80.003876 
	C480.502991,77.382256 469.955414,79.265869 460.214600,85.394691 
	C459.015137,86.149391 457.720490,86.752861 456.466461,87.428291 
	C453.199066,81.083855 453.199066,81.083755 445.927612,81.083862 
	C442.595886,81.083908 439.262787,81.144455 435.932892,81.066544 
	C433.053772,80.999184 431.738739,82.116203 431.751953,85.170845 
	C431.841461,105.826744 431.850250,126.483170 431.815918,147.139297 
	C431.809235,151.162872 433.856171,152.929855 437.622040,152.975098 
	C443.285126,153.043167 448.949829,153.027328 454.613403,152.987305 
	C458.188049,152.962051 460.166168,151.123169 460.378235,147.522919 
	C460.466217,146.028992 460.462280,144.528381 460.463165,143.030792 
	C460.469910,131.702957 460.343506,120.373276 460.511261,109.047913 
	C460.623779,101.449936 464.595673,97.848900 472.109070,97.969620 
	C478.569183,98.073418 480.995087,101.050240 480.997925,108.901260 
	C481.002380,121.062027 480.970856,133.222885 481.011200,145.383514 
	C481.030975,151.355774 482.651825,152.928329 488.709167,152.991486 
	C493.206512,153.038391 497.704712,153.000824 503.133484,153.000809 
M870.822449,122.458145 
	C874.674988,122.550430 877.002563,121.060692 877.249756,116.851265 
	C878.120667,102.020561 871.757507,87.259338 856.276306,82.229156 
	C849.191650,79.927200 841.343506,79.212410 833.828308,79.138885 
	C809.672852,78.902550 794.865234,93.870949 795.143738,117.991432 
	C795.322083,133.435791 802.000549,144.969116 816.742065,151.201157 
	C827.831604,155.889221 839.437805,155.881683 850.930237,154.411926 
	C857.293884,153.598114 863.438904,150.764908 869.536499,148.456436 
	C870.682251,148.022675 872.130981,145.343231 871.739746,144.422546 
	C870.030945,140.401352 867.695679,136.646408 865.371582,132.399765 
	C856.377380,138.130905 847.065308,138.923431 837.489685,137.965469 
	C831.217285,137.337952 825.913696,134.858932 823.242126,128.749466 
	C821.115967,123.887482 822.159546,122.483681 827.472046,122.473473 
	C841.627625,122.446281 855.783264,122.463814 870.822449,122.458145 
M594.047546,136.412735 
	C592.807556,134.288834 591.567566,132.164948 590.196716,129.816833 
	C588.799500,130.413589 587.645325,130.984085 586.439636,131.407944 
	C581.497498,133.145279 576.655518,135.469925 571.561340,136.404099 
	C563.176575,137.941650 554.814697,133.514908 552.336914,126.347885 
	C549.571228,118.348228 549.356934,110.174240 555.382019,103.351662 
	C561.312378,96.636475 569.170837,96.861877 577.036072,98.823410 
	C579.875488,99.531540 582.482117,101.179459 585.188232,102.413223 
	C586.478882,103.001663 587.753845,103.624481 588.803955,104.121857 
	C589.381897,103.666473 589.559143,103.590248 589.636780,103.456299 
	C591.384094,100.443321 593.100830,97.412537 594.862793,94.408249 
	C598.575806,88.077187 598.412292,87.289139 591.774048,84.006081 
	C580.790039,78.573723 569.076477,78.181839 557.222717,79.498482 
	C548.314575,80.487953 540.020325,83.387291 533.313477,89.538315 
	C522.623352,99.342522 520.550598,111.913521 522.533142,125.565308 
	C524.487427,139.022247 532.259705,147.693451 544.917053,152.166550 
	C555.513611,155.911362 566.464294,155.753372 577.355225,154.352203 
	C585.222839,153.339966 592.926514,151.300949 599.196350,145.319519 
	C597.549316,142.461121 595.987610,139.750931 594.047546,136.412735 
z"/>
<path fill="#FDFBF8" opacity="1.000000" stroke="none" 
	d="
M1282.000000,126.531708 
	C1281.006226,128.290680 1279.512817,129.439911 1279.100830,130.895279 
	C1276.599121,139.732437 1271.753906,146.812912 1263.490601,150.922424 
	C1252.441406,156.417404 1241.008545,156.821747 1229.499756,152.091080 
	C1228.487061,151.674850 1227.441772,151.338120 1225.460327,150.619385 
	C1225.460327,157.970734 1225.369507,164.722885 1225.479126,171.471786 
	C1225.706543,185.461258 1224.372559,184.112534 1212.807373,184.006668 
	C1209.977173,183.980759 1207.146362,184.021851 1204.316040,183.998657 
	C1198.736816,183.952927 1197.145874,182.651230 1197.127197,177.010315 
	C1197.032837,148.706161 1197.066406,120.401497 1197.144043,92.097252 
	C1197.146973,91.026443 1197.774048,89.567856 1198.602661,88.946625 
	C1214.075928,77.344177 1248.755981,75.536247 1265.328857,85.340912 
	C1273.073730,89.922783 1277.476685,96.854370 1279.724365,105.387741 
	C1280.030884,106.551697 1280.828369,107.586342 1281.699341,108.340424 
	C1282.000000,114.021156 1282.000000,120.042305 1282.000000,126.531708 
M1228.298462,133.084610 
	C1232.210938,136.643646 1236.764160,137.493988 1241.720703,135.995346 
	C1248.695435,133.886459 1250.819092,127.979073 1251.596924,121.787201 
	C1253.475464,106.832260 1248.349609,96.420700 1231.281982,98.025368 
	C1227.579102,98.373512 1225.119629,99.527817 1225.387695,104.128883 
	C1225.754639,110.426926 1225.231201,116.776260 1225.583740,123.075958 
	C1225.760986,126.244629 1227.029907,129.352234 1228.298462,133.084610 
z"/>
<path fill="#633102" opacity="1.000000" stroke="none" 
	d="
M141.536819,1.000000 
	C142.646622,1.815741 143.121979,2.968086 143.965332,3.397167 
	C158.676147,10.881784 162.904266,19.999441 159.498062,36.179985 
	C157.422394,46.040092 156.031906,56.046707 153.862640,65.883644 
	C153.064896,69.501183 154.248856,70.790924 157.215225,72.235367 
	C169.754745,78.341377 181.027390,86.057617 188.706055,98.144623 
	C193.459076,105.626350 195.991760,113.738274 195.974548,122.590843 
	C195.962280,128.901611 196.396378,135.306351 195.497086,141.504593 
	C192.913437,159.312424 181.774811,171.245743 167.112778,180.316132 
	C151.008652,190.278610 133.217545,195.136307 114.511765,197.046921 
	C113.650551,197.134872 112.847778,197.794800 112.008896,198.594177 
	C103.645767,199.000000 95.291534,199.000000 86.454849,198.588593 
	C85.138962,197.787415 84.327011,197.114807 83.468910,197.049652 
	C66.037292,195.725616 49.559307,191.009140 34.322163,182.504456 
	C19.709524,174.348343 8.069780,163.379333 3.245872,146.596573 
	C2.958947,145.598343 1.769482,144.859528 1.000000,144.000000 
	C1.000000,134.312439 1.000000,124.624878 1.373981,114.489105 
	C2.512221,112.461823 3.267895,110.878525 4.042373,109.304482 
	C6.230175,104.858017 7.934775,100.077736 10.713737,96.036903 
	C17.946379,85.520103 28.047483,78.316063 39.441082,72.815102 
	C42.020481,71.569740 44.565838,70.419304 43.787518,66.593513 
	C41.545296,55.572018 39.560883,44.498203 37.337467,33.472717 
	C34.624172,20.017984 40.699974,8.563889 53.384201,3.315186 
	C54.401314,2.894305 55.134743,1.787859 56.000000,1.000000 
	C59.692909,1.000000 63.385818,1.000000 67.516449,1.365245 
	C68.580711,2.194148 69.142708,2.822638 69.843376,3.096929 
	C81.855652,7.799403 87.268967,16.709820 87.027931,29.454689 
	C86.864304,38.106792 87.092911,46.766071 86.950882,55.418934 
	C86.894814,58.834938 88.074783,60.246498 91.601845,60.086914 
	C96.418808,59.868969 101.263145,59.842426 106.076721,60.095654 
	C109.861809,60.294769 111.031807,58.756554 110.972351,55.143627 
	C110.816254,45.658768 110.960716,36.169415 110.911026,26.682241 
	C110.854294,15.851160 116.019478,8.503612 125.661430,3.947807 
	C126.950729,3.338615 127.895622,2.000542 129.000000,1.000001 
	C133.024551,1.000000 137.049088,1.000000 141.536819,1.000000 
M188.979401,126.275261 
	C188.790115,122.796875 188.989853,119.244263 188.342880,115.853203 
	C185.809525,102.574982 177.633041,93.102646 166.717834,85.959038 
	C159.955658,81.533432 152.630524,77.968025 145.403366,73.930046 
	C148.103180,59.614120 150.826126,45.090641 153.585190,30.574018 
	C155.539856,20.289631 148.111252,10.170192 137.749207,9.062266 
	C127.236572,7.938239 118.032089,16.025694 117.858482,26.650846 
	C117.755074,32.979511 117.833122,39.311165 117.831886,45.641476 
	C117.830460,52.926632 117.831551,60.211792 117.831551,67.486977 
	C105.021461,67.486977 92.816475,67.486977 80.219528,67.486977 
	C80.148598,65.967308 80.010330,64.348770 80.007599,62.729996 
	C79.988495,51.402081 80.013596,40.074089 79.992950,28.746180 
	C79.970833,16.610613 71.609444,8.172116 60.498188,9.031491 
	C49.339958,9.894497 42.040665,20.135996 44.215771,31.993177 
	C46.583176,44.898663 48.868259,57.823391 51.552029,70.663902 
	C52.260567,74.053932 51.232483,75.237953 48.441502,76.727745 
	C40.988911,80.705872 33.206638,84.403038 26.596272,89.548973 
	C14.563879,98.915733 7.529593,111.189697 9.115129,128.085220 
	C9.260562,132.730026 8.821230,137.483017 9.656754,142.000168 
	C12.631491,158.082748 23.599957,168.171722 36.962364,175.779068 
	C60.138317,188.973389 85.407181,192.608551 111.653191,190.433029 
	C130.970001,188.831879 149.291183,183.798859 165.625275,172.950729 
	C181.944809,162.112274 191.315079,147.638031 188.979401,126.275261 
z"/>
<path fill="#010101" opacity="1.000000" stroke="none" 
	d="
M55.531342,1.000000 
	C55.134743,1.787859 54.401314,2.894305 53.384201,3.315186 
	C40.699974,8.563889 34.624172,20.017984 37.337467,33.472717 
	C39.560883,44.498203 41.545296,55.572018 43.787518,66.593513 
	C44.565838,70.419304 42.020481,71.569740 39.441082,72.815102 
	C28.047483,78.316063 17.946379,85.520103 10.713737,96.036903 
	C7.934775,100.077736 6.230175,104.858017 4.042373,109.304482 
	C3.267895,110.878525 2.512221,112.461823 1.373981,114.020447 
	C1.000000,76.431671 1.000000,38.863338 1.000000,1.000000 
	C19.019821,1.000000 37.041252,1.000000 55.531342,1.000000 
z"/>
<path fill="#010101" opacity="1.000000" stroke="none" 
	d="
M128.531342,1.000001 
	C127.895622,2.000542 126.950729,3.338615 125.661430,3.947807 
	C116.019478,8.503612 110.854294,15.851160 110.911026,26.682241 
	C110.960716,36.169415 110.816254,45.658768 110.972351,55.143627 
	C111.031807,58.756554 109.861809,60.294769 106.076721,60.095654 
	C101.263145,59.842426 96.418808,59.868969 91.601845,60.086914 
	C88.074783,60.246498 86.894814,58.834938 86.950882,55.418934 
	C87.092911,46.766071 86.864304,38.106792 87.027931,29.454689 
	C87.268967,16.709820 81.855652,7.799403 69.843376,3.096929 
	C69.142708,2.822638 68.580711,2.194148 67.977089,1.365245 
	C88.020897,1.000000 108.041786,1.000000 128.531342,1.000001 
z"/>
<path fill="#010101" opacity="1.000000" stroke="none" 
	d="
M1.000000,144.468658 
	C1.769482,144.859528 2.958947,145.598343 3.245872,146.596573 
	C8.069780,163.379333 19.709524,174.348343 34.322163,182.504456 
	C49.559307,191.009140 66.037292,195.725616 83.468910,197.049652 
	C84.327011,197.114807 85.138962,197.787415 85.986206,198.588593 
	C57.755486,199.000000 29.510971,199.000000 1.000000,199.000000 
	C1.000000,180.979980 1.000000,162.958649 1.000000,144.468658 
z"/>
<path fill="#FDFBF8" opacity="1.000000" stroke="none" 
	d="
M285.982361,120.002060 
	C281.656708,120.002113 277.815552,120.171524 273.997192,119.949524 
	C270.850647,119.766579 269.917938,121.087158 269.965302,124.031769 
	C270.083130,131.359268 270.045380,138.690262 269.989349,146.019241 
	C269.948822,151.321976 268.448242,152.886688 263.246948,152.981171 
	C258.084778,153.074936 252.918671,153.060684 247.755875,152.985413 
	C242.509003,152.908936 241.024445,151.287079 241.012009,145.507355 
	C240.973663,127.683662 240.997971,109.859825 240.997971,92.036049 
	C240.997971,80.708786 241.056656,69.381073 240.968994,58.054493 
	C240.934174,53.558304 242.460129,50.418972 247.378464,50.525623 
	C265.309631,50.914455 283.342010,50.449024 301.134369,52.273865 
	C316.590179,53.859055 324.915192,64.297493 326.051544,79.909927 
	C326.434601,85.172462 326.577484,90.675636 325.485931,95.781464 
	C321.878021,112.657913 310.422028,118.289124 293.469879,119.969597 
	C291.160431,120.198532 288.808807,120.001740 285.982361,120.002060 
M270.021820,94.312347 
	C269.231171,98.894859 271.024689,100.682777 275.727356,100.126663 
	C279.008972,99.738594 282.386353,100.223808 285.690643,99.951309 
	C292.964966,99.351418 297.539978,93.568916 297.506226,85.334930 
	C297.472443,77.098389 292.860962,71.497871 285.467041,71.010277 
	C281.657928,70.759079 277.816620,71.022125 274.001953,70.822166 
	C270.947479,70.662041 269.888428,71.862289 269.971588,74.891457 
	C270.140289,81.038643 270.021851,87.193703 270.021820,94.312347 
z"/>
<path fill="#FCFAF7" opacity="1.000000" stroke="none" 
	d="
M934.347229,91.783203 
	C942.084778,95.224129 949.662415,98.138962 956.802490,101.887383 
	C967.337646,107.418274 971.467529,116.900635 970.631836,128.380020 
	C969.695557,141.241226 962.185181,149.710632 950.117126,152.729431 
	C930.838806,157.551819 911.675415,155.970566 893.352051,147.890121 
	C885.765503,144.544510 885.624268,143.407135 889.921814,136.587341 
	C891.936096,133.390945 893.984924,130.216309 896.159912,126.809708 
	C904.947144,131.660629 913.858276,134.999435 923.635315,135.249268 
	C926.936157,135.333603 930.321045,135.398727 933.535339,134.782745 
	C937.712463,133.982239 940.843994,131.333878 941.686462,127.004776 
	C942.536377,122.637421 940.637573,118.948898 936.802917,116.989738 
	C929.777771,113.400536 922.483643,110.340942 915.338440,106.982147 
	C912.054138,105.438263 908.837646,103.745766 905.623657,102.057358 
	C894.257690,96.086479 889.647949,86.482979 891.090271,73.986870 
	C892.479187,61.953262 899.694519,54.449326 910.945435,51.023239 
	C927.896851,45.861271 944.703918,46.992996 960.969421,53.904041 
	C969.287659,57.438366 969.527954,58.942467 964.841248,66.298355 
	C962.992249,69.200462 961.110229,72.081535 959.492859,74.585709 
	C953.089172,72.470016 947.151184,69.909988 940.949219,68.666542 
	C936.717224,67.818054 931.865723,67.991150 927.764465,69.249725 
	C924.783936,70.164406 921.446777,73.147369 920.292847,76.020996 
	C918.596252,80.246178 920.501465,84.608521 924.623108,87.131371 
	C927.562500,88.930588 930.856140,90.151138 934.347229,91.783203 
z"/>
<path fill="#FDFBF8" opacity="1.000000" stroke="none" 
	d="
M709.015259,152.133728 
	C708.018433,149.950195 706.870972,147.998978 706.863403,146.043320 
	C706.748718,116.557747 706.874878,87.071030 706.694824,57.586113 
	C706.664490,52.622570 708.633484,50.504848 713.294373,50.408085 
	C717.955078,50.311325 722.622498,50.129734 727.277771,50.276966 
	C734.106628,50.492939 735.380127,51.764435 735.426758,58.672543 
	C735.527893,73.664757 735.446777,88.658134 735.478394,103.650955 
	C735.481995,105.374275 735.727844,107.097076 735.861389,108.820122 
	C736.290527,108.994698 736.719666,109.169273 737.148804,109.343857 
	C740.870972,104.633148 745.369507,100.338051 748.158691,95.127876 
	C754.574036,83.144119 764.056396,78.834854 777.171753,80.998138 
	C780.536682,81.553162 784.070984,81.081482 789.254028,81.081482 
	C787.256287,84.348961 786.244324,86.633850 784.685059,88.448349 
	C776.817566,97.603363 768.807312,106.635826 760.520508,116.083702 
	C768.056824,125.038933 775.492981,133.872879 782.926147,142.709381 
	C784.630859,144.735886 786.406921,146.709213 788.003845,148.817856 
	C789.998291,151.451508 788.788574,152.912857 785.930725,152.956497 
	C777.769897,153.081116 769.601013,153.137009 761.447571,152.858841 
	C760.011658,152.809860 758.278931,151.287491 757.290039,149.984863 
	C751.574524,142.455597 746.059814,134.774216 740.429382,127.179634 
	C739.364929,125.743881 738.085999,124.467133 735.460388,123.271667 
	C735.460388,127.787163 735.493347,132.302979 735.450012,136.818054 
	C735.414917,140.476379 735.229919,144.133621 735.218933,147.791656 
	C735.208801,151.146255 733.054199,152.816833 730.274292,152.858093 
	C723.318420,152.961365 716.355103,152.561783 709.015259,152.133728 
z"/>
<path fill="#FDFBF8" opacity="1.000000" stroke="none" 
	d="
M1043.928711,92.037743 
	C1047.226074,101.019928 1050.452148,109.608955 1053.678345,118.197990 
	C1054.259521,118.197662 1054.840698,118.197334 1055.421997,118.197006 
	C1056.933105,112.425034 1058.478882,106.661827 1059.945435,100.878548 
	C1061.324585,95.439804 1062.429810,89.921104 1064.081177,84.568932 
	C1064.516724,83.157501 1066.481079,81.302689 1067.819458,81.238426 
	C1074.782104,80.904121 1081.769409,81.082687 1089.702393,81.082687 
	C1087.995483,87.235870 1086.531494,92.859520 1084.873535,98.425323 
	C1079.912354,115.080605 1074.845093,131.704269 1069.893799,148.362442 
	C1068.926025,151.618744 1067.413330,153.402847 1063.586060,153.086960 
	C1058.294312,152.650223 1051.703979,154.659409 1047.990356,152.165527 
	C1044.350952,149.721634 1043.562866,142.970718 1041.628418,138.068680 
	C1040.050171,134.069229 1038.682129,129.986786 1037.105469,125.986618 
	C1036.531128,124.529358 1035.623291,123.203468 1034.246338,120.677994 
	C1030.869873,129.821335 1027.556641,137.671509 1025.120117,145.784943 
	C1023.485840,151.226868 1020.961609,153.346237 1015.059082,153.152054 
	C1001.017639,152.690109 1001.031433,152.996231 997.039795,139.525833 
	C991.367798,120.384987 985.656189,101.255898 979.695190,81.227005 
	C987.896362,81.227005 995.600647,81.098442 1003.288635,81.394356 
	C1004.219727,81.430199 1005.522278,83.641220 1005.872620,85.039558 
	C1008.353516,94.941101 1010.616394,104.897064 1012.992493,114.825203 
	C1013.268677,115.979073 1013.812805,117.068810 1014.232788,118.188271 
	C1014.680664,118.235123 1015.128540,118.281967 1015.576416,118.328819 
	C1017.367310,113.866486 1019.214661,109.425781 1020.933289,104.935822 
	C1022.706238,100.303955 1024.142944,95.528587 1026.182617,91.022438 
	C1026.809448,89.637642 1028.824951,88.347984 1030.401489,88.047485 
	C1032.974243,87.557030 1035.730469,88.128365 1038.369141,87.858284 
	C1041.444336,87.543541 1043.053589,88.896790 1043.928711,92.037743 
z"/>
<path fill="#FCFBF8" opacity="1.000000" stroke="none" 
	d="
M1123.984863,82.905380 
	C1143.218018,76.118752 1161.486572,77.947433 1179.151978,86.848320 
	C1180.483887,87.519386 1181.785156,89.774155 1181.799683,91.305031 
	C1181.978882,110.280098 1181.856812,129.257782 1181.967285,148.233902 
	C1181.989258,151.981812 1180.507935,153.354385 1176.893311,153.038116 
	C1174.745728,152.850204 1172.568237,153.021591 1170.404297,153.000351 
	C1164.512939,152.942551 1157.735474,154.902374 1155.906128,145.603607 
	C1146.781494,154.741104 1135.992920,155.985214 1124.892578,154.891205 
	C1113.846436,153.802582 1105.864624,148.035812 1101.710571,137.337250 
	C1095.509766,121.367584 1099.117798,101.873596 1111.103027,90.883080 
	C1114.675537,87.607140 1119.406128,85.594231 1123.984863,82.905380 
M1151.408569,132.961807 
	C1152.622803,129.828857 1154.631226,126.759148 1154.886841,123.549896 
	C1155.427124,116.762878 1155.251831,109.892845 1154.907104,103.080276 
	C1154.824097,101.439484 1153.180054,98.790268 1151.832886,98.489365 
	C1146.041382,97.195801 1140.315674,97.456734 1135.390381,101.641174 
	C1129.298218,106.816849 1127.758301,113.526459 1127.825195,121.166878 
	C1127.877319,127.121696 1129.430908,132.254791 1134.816772,134.920441 
	C1140.144165,137.557144 1145.781494,137.112137 1151.408569,132.961807 
z"/>
<path fill="#FDFBF8" opacity="1.000000" stroke="none" 
	d="
M628.250366,85.158798 
	C648.829590,75.594765 668.753845,77.177689 688.349426,86.907227 
	C689.593201,87.524780 690.878967,89.550034 690.890869,90.931152 
	C691.056274,110.233040 690.948792,129.537094 691.053650,148.839844 
	C691.072266,152.264038 689.544128,153.130356 686.492554,153.039444 
	C681.837280,152.900757 677.168701,152.859238 672.517639,153.056030 
	C669.631348,153.178162 667.773315,152.414505 666.954956,149.441330 
	C666.634949,148.278656 665.669006,147.293793 664.719482,145.787125 
	C656.032471,155.088806 645.081604,156.090866 634.090027,154.832703 
	C620.504150,153.277588 612.543457,146.307358 609.422668,132.105087 
	C606.335449,118.055573 608.049927,104.607880 617.913208,93.341492 
	C620.687073,90.173012 624.544739,87.953316 628.250366,85.158798 
M641.801941,104.433151 
	C636.999268,110.549507 636.101868,117.701942 637.352600,124.949860 
	C638.845825,133.602890 644.194397,137.118958 652.944214,136.227554 
	C660.752380,135.432114 664.201416,131.205612 664.256165,122.267059 
	C664.294800,115.961090 664.119080,109.650131 664.318420,103.350235 
	C664.435364,99.654747 662.598755,98.313889 659.329956,97.993393 
	C652.742188,97.347481 646.776611,98.446693 641.801941,104.433151 
z"/>
<path fill="#FDFBF8" opacity="1.000000" stroke="none" 
	d="
M416.026215,140.966614 
	C416.026215,153.003357 416.026215,153.003357 404.500092,153.003342 
	C404.333679,153.003342 404.167175,152.999496 404.000854,153.003906 
	C398.276306,153.155487 391.987396,154.556076 390.483917,145.478958 
	C381.746155,154.054184 371.864258,155.368881 361.339935,155.065186 
	C349.775299,154.731506 339.535583,147.999451 335.983185,137.024857 
	C330.943481,121.455399 332.042694,106.558212 342.818268,93.449974 
	C348.976624,85.958458 357.549164,82.059692 366.754883,80.263390 
	C382.273438,77.235275 397.398499,78.960030 411.847687,85.833443 
	C414.942841,87.305786 416.176147,88.972031 416.125183,92.545517 
	C415.897491,108.518280 416.026215,124.496124 416.026215,140.966614 
M365.863525,132.638229 
	C371.041931,137.451324 376.987061,137.335693 382.976776,134.832626 
	C388.595001,132.484772 389.482971,127.513138 389.311615,122.006889 
	C389.115448,115.703430 389.524597,109.371552 389.096863,103.091110 
	C388.979645,101.370056 387.105560,98.783173 385.525665,98.312592 
	C377.351135,95.877769 368.268372,99.989883 364.749756,107.842781 
	C361.152435,115.871346 360.421143,124.119270 365.863525,132.638229 
z"/>
<path fill="#FEFCF9" opacity="1.000000" stroke="none" 
	d="
M502.668030,153.000854 
	C497.704712,153.000824 493.206512,153.038391 488.709167,152.991486 
	C482.651825,152.928329 481.030975,151.355774 481.011200,145.383514 
	C480.970856,133.222885 481.002380,121.062027 480.997925,108.901260 
	C480.995087,101.050240 478.569183,98.073418 472.109070,97.969620 
	C464.595673,97.848900 460.623779,101.449936 460.511261,109.047913 
	C460.343506,120.373276 460.469910,131.702957 460.463165,143.030792 
	C460.462280,144.528381 460.466217,146.028992 460.378235,147.522919 
	C460.166168,151.123169 458.188049,152.962051 454.613403,152.987305 
	C448.949829,153.027328 443.285126,153.043167 437.622040,152.975098 
	C433.856171,152.929855 431.809235,151.162872 431.815918,147.139297 
	C431.850250,126.483170 431.841461,105.826744 431.751953,85.170845 
	C431.738739,82.116203 433.053772,80.999184 435.932892,81.066544 
	C439.262787,81.144455 442.595886,81.083908 445.927612,81.083862 
	C453.199066,81.083755 453.199066,81.083855 456.466461,87.428291 
	C457.720490,86.752861 459.015137,86.149391 460.214600,85.394691 
	C469.955414,79.265869 480.502991,77.382256 491.648254,80.003876 
	C503.512268,82.794579 509.923065,91.096214 509.996368,103.277855 
	C510.081604,117.437141 510.035065,131.597321 510.016754,145.757065 
	C510.009216,151.592377 509.099274,152.512909 502.668030,153.000854 
z"/>
<path fill="#FCFAF7" opacity="1.000000" stroke="none" 
	d="
M870.380676,122.460861 
	C855.783264,122.463814 841.627625,122.446281 827.472046,122.473473 
	C822.159546,122.483681 821.115967,123.887482 823.242126,128.749466 
	C825.913696,134.858932 831.217285,137.337952 837.489685,137.965469 
	C847.065308,138.923431 856.377380,138.130905 865.371582,132.399765 
	C867.695679,136.646408 870.030945,140.401352 871.739746,144.422546 
	C872.130981,145.343231 870.682251,148.022675 869.536499,148.456436 
	C863.438904,150.764908 857.293884,153.598114 850.930237,154.411926 
	C839.437805,155.881683 827.831604,155.889221 816.742065,151.201157 
	C802.000549,144.969116 795.322083,133.435791 795.143738,117.991432 
	C794.865234,93.870949 809.672852,78.902550 833.828308,79.138885 
	C841.343506,79.212410 849.191650,79.927200 856.276306,82.229156 
	C871.757507,87.259338 878.120667,102.020561 877.249756,116.851265 
	C877.002563,121.060692 874.674988,122.550430 870.380676,122.460861 
M845.408813,96.777618 
	C838.863953,93.890907 832.523010,93.968552 826.756226,98.529961 
	C823.463989,101.134079 821.827148,104.563782 823.170410,109.272438 
	C830.412720,109.272438 837.534363,109.415520 844.644653,109.193520 
	C847.076843,109.117577 849.480469,108.126205 851.897156,107.553093 
	C850.844910,104.836418 849.924255,102.056808 848.671021,99.436241 
	C848.215454,98.483643 846.966431,97.910454 845.408813,96.777618 
z"/>
<path fill="#FCFAF7" opacity="1.000000" stroke="none" 
	d="
M594.236755,136.726746 
	C595.987610,139.750931 597.549316,142.461121 599.196350,145.319519 
	C592.926514,151.300949 585.222839,153.339966 577.355225,154.352203 
	C566.464294,155.753372 555.513611,155.911362 544.917053,152.166550 
	C532.259705,147.693451 524.487427,139.022247 522.533142,125.565308 
	C520.550598,111.913521 522.623352,99.342522 533.313477,89.538315 
	C540.020325,83.387291 548.314575,80.487953 557.222717,79.498482 
	C569.076477,78.181839 580.790039,78.573723 591.774048,84.006081 
	C598.412292,87.289139 598.575806,88.077187 594.862793,94.408249 
	C593.100830,97.412537 591.384094,100.443321 589.636780,103.456299 
	C589.559143,103.590248 589.381897,103.666473 588.803955,104.121857 
	C587.753845,103.624481 586.478882,103.001663 585.188232,102.413223 
	C582.482117,101.179459 579.875488,99.531540 577.036072,98.823410 
	C569.170837,96.861877 561.312378,96.636475 555.382019,103.351662 
	C549.356934,110.174240 549.571228,118.348228 552.336914,126.347885 
	C554.814697,133.514908 563.176575,137.941650 571.561340,136.404099 
	C576.655518,135.469925 581.497498,133.145279 586.439636,131.407944 
	C587.645325,130.984085 588.799500,130.413589 590.196716,129.816833 
	C591.567566,132.164948 592.807556,134.288834 594.236755,136.726746 
z"/>
<path fill="#060606" opacity="1.000000" stroke="none" 
	d="
M1228.051758,132.786026 
	C1227.029907,129.352234 1225.760986,126.244629 1225.583740,123.075958 
	C1225.231201,116.776260 1225.754639,110.426926 1225.387695,104.128883 
	C1225.119629,99.527817 1227.579102,98.373512 1231.281982,98.025368 
	C1248.349609,96.420700 1253.475464,106.832260 1251.596924,121.787201 
	C1250.819092,127.979073 1248.695435,133.886459 1241.720703,135.995346 
	C1236.764160,137.493988 1232.210938,136.643646 1228.051758,132.786026 
z"/>
<path fill="#D1884F" opacity="1.000000" stroke="none" 
	d="
M9.200040,127.181831 
	C7.529593,111.189697 14.563879,98.915733 26.596272,89.548973 
	C33.206638,84.403038 40.988911,80.705872 48.441502,76.727745 
	C51.232483,75.237953 52.260567,74.053932 51.552029,70.663902 
	C48.868259,57.823391 46.583176,44.898663 44.215771,31.993177 
	C42.040665,20.135996 49.339958,9.894497 60.498188,9.031491 
	C71.609444,8.172116 79.970833,16.610613 79.992950,28.746180 
	C80.013596,40.074089 79.988495,51.402081 80.007599,62.729996 
	C80.010330,64.348770 80.148598,65.967308 80.219528,67.486977 
	C92.816475,67.486977 105.021461,67.486977 117.831551,67.486977 
	C117.831551,60.211792 117.830460,52.926632 117.831886,45.641476 
	C117.833122,39.311165 117.755074,32.979511 117.858482,26.650846 
	C118.032089,16.025694 127.236572,7.938239 137.749207,9.062266 
	C148.111252,10.170192 155.539856,20.289631 153.585190,30.574018 
	C150.826126,45.090641 148.103180,59.614120 145.403366,73.930046 
	C152.630524,77.968025 159.955658,81.533432 166.717834,85.959038 
	C177.633041,93.102646 185.809525,102.574982 188.342880,115.853203 
	C188.989853,119.244263 188.790115,122.796875 188.664673,127.011383 
	C185.577896,142.856155 175.650665,152.545349 163.381042,160.309402 
	C146.076920,171.259216 126.674698,175.556854 106.617325,176.824982 
	C87.013680,178.064453 67.745804,175.290405 49.513538,167.857574 
	C30.469818,160.093918 14.360674,148.935028 9.200040,127.181831 
M64.377136,103.011200 
	C62.970211,103.410858 61.398026,103.532547 60.182957,104.254913 
	C51.779121,109.251137 51.994923,127.043594 60.445816,131.996933 
	C63.658459,133.879974 66.614014,133.160294 69.126457,130.840637 
	C77.685555,122.938248 74.399445,104.754623 64.377136,103.011200 
M123.007996,119.300323 
	C124.207710,122.677612 124.814362,126.448738 126.737930,129.345337 
	C130.122528,134.442032 135.926346,134.196152 139.633957,129.379623 
	C144.269745,123.357307 144.135254,112.404716 139.353241,106.519096 
	C135.360199,101.604538 129.284302,101.630142 126.219383,107.177658 
	C124.380508,110.506035 124.021782,114.652168 123.007996,119.300323 
z"/>
<path fill="#FCD98E" opacity="1.000000" stroke="none" 
	d="
M9.157584,127.633530 
	C14.360674,148.935028 30.469818,160.093918 49.513538,167.857574 
	C67.745804,175.290405 87.013680,178.064453 106.617325,176.824982 
	C126.674698,175.556854 146.076920,171.259216 163.381042,160.309402 
	C175.650665,152.545349 185.577896,142.856155 188.569901,127.474106 
	C191.315079,147.638031 181.944809,162.112274 165.625275,172.950729 
	C149.291183,183.798859 130.970001,188.831879 111.653191,190.433029 
	C85.407181,192.608551 60.138317,188.973389 36.962364,175.779068 
	C23.599957,168.171722 12.631491,158.082748 9.656754,142.000168 
	C8.821230,137.483017 9.260562,132.730026 9.157584,127.633530 
z"/>
<path fill="#020202" opacity="1.000000" stroke="none" 
	d="
M270.021820,93.828934 
	C270.021851,87.193703 270.140289,81.038643 269.971588,74.891457 
	C269.888428,71.862289 270.947479,70.662041 274.001953,70.822166 
	C277.816620,71.022125 281.657928,70.759079 285.467041,71.010277 
	C292.860962,71.497871 297.472443,77.098389 297.506226,85.334930 
	C297.539978,93.568916 292.964966,99.351418 285.690643,99.951309 
	C282.386353,100.223808 279.008972,99.738594 275.727356,100.126663 
	C271.024689,100.682777 269.231171,98.894859 270.021820,93.828934 
z"/>
<path fill="#010101" opacity="1.000000" stroke="none" 
	d="
M1151.130371,133.235535 
	C1145.781494,137.112137 1140.144165,137.557144 1134.816772,134.920441 
	C1129.430908,132.254791 1127.877319,127.121696 1127.825195,121.166878 
	C1127.758301,113.526459 1129.298218,106.816849 1135.390381,101.641174 
	C1140.315674,97.456734 1146.041382,97.195801 1151.832886,98.489365 
	C1153.180054,98.790268 1154.824097,101.439484 1154.907104,103.080276 
	C1155.251831,109.892845 1155.427124,116.762878 1154.886841,123.549896 
	C1154.631226,126.759148 1152.622803,129.828857 1151.130371,133.235535 
z"/>
<path fill="#010101" opacity="1.000000" stroke="none" 
	d="
M642.056763,104.165131 
	C646.776611,98.446693 652.742188,97.347481 659.329956,97.993393 
	C662.598755,98.313889 664.435364,99.654747 664.318420,103.350235 
	C664.119080,109.650131 664.294800,115.961090 664.256165,122.267059 
	C664.201416,131.205612 660.752380,135.432114 652.944214,136.227554 
	C644.194397,137.118958 638.845825,133.602890 637.352600,124.949860 
	C636.101868,117.701942 636.999268,110.549507 642.056763,104.165131 
z"/>
<path fill="#020202" opacity="1.000000" stroke="none" 
	d="
M365.596008,132.361481 
	C360.421143,124.119270 361.152435,115.871346 364.749756,107.842781 
	C368.268372,99.989883 377.351135,95.877769 385.525665,98.312592 
	C387.105560,98.783173 388.979645,101.370056 389.096863,103.091110 
	C389.524597,109.371552 389.115448,115.703430 389.311615,122.006889 
	C389.482971,127.513138 388.595001,132.484772 382.976776,134.832626 
	C376.987061,137.335693 371.041931,137.451324 365.596008,132.361481 
z"/>
<path fill="#030303" opacity="1.000000" stroke="none" 
	d="
M845.744141,96.970886 
	C846.966431,97.910454 848.215454,98.483643 848.671021,99.436241 
	C849.924255,102.056808 850.844910,104.836418 851.897156,107.553093 
	C849.480469,108.126205 847.076843,109.117577 844.644653,109.193520 
	C837.534363,109.415520 830.412720,109.272438 823.170410,109.272438 
	C821.827148,104.563782 823.463989,101.134079 826.756226,98.529961 
	C832.523010,93.968552 838.863953,93.890907 845.744141,96.970886 
z"/>
<path fill="#653202" opacity="1.000000" stroke="none" 
	d="
M64.767059,103.040100 
	C74.399445,104.754623 77.685555,122.938248 69.126457,130.840637 
	C66.614014,133.160294 63.658459,133.879974 60.445816,131.996933 
	C51.994923,127.043594 51.779121,109.251137 60.182957,104.254913 
	C61.398026,103.532547 62.970211,103.410858 64.767059,103.040100 
z"/>
<path fill="#653202" opacity="1.000000" stroke="none" 
	d="
M123.002914,118.865547 
	C124.021782,114.652168 124.380508,110.506035 126.219383,107.177658 
	C129.284302,101.630142 135.360199,101.604538 139.353241,106.519096 
	C144.135254,112.404716 144.269745,123.357307 139.633957,129.379623 
	C135.926346,134.196152 130.122528,134.442032 126.737930,129.345337 
	C124.814362,126.448738 124.207710,122.677612 123.002914,118.865547 
z"/>
</svg>