<svg width="188" height="56" viewBox="0 0 188 56" fill="none" xmlns="http://www.w3.org/2000/svg">
<rect width="188" height="56" rx="5" fill="#0D0E0F"/>
<path d="M93.639 29.7784C90.3593 29.7784 87.6861 32.2635 87.6861 35.6862C87.6861 39.0881 90.3593 41.594 93.639 41.594C96.9202 41.594 99.5934 39.0881 99.5934 35.6862C99.592 32.2635 96.9188 29.7784 93.639 29.7784ZM93.639 39.2686C91.8416 39.2686 90.2924 37.792 90.2924 35.6876C90.2924 33.5609 91.843 32.1065 93.639 32.1065C95.4365 32.1065 96.9857 33.5609 96.9857 35.6876C96.9857 37.7907 95.4365 39.2686 93.639 39.2686ZM80.6511 29.7784C77.3713 29.7784 74.6982 32.2635 74.6982 35.6862C74.6982 39.0881 77.3713 41.594 80.6511 41.594C83.9322 41.594 86.6054 39.0881 86.6054 35.6862C86.6054 32.2635 83.9322 29.7784 80.6511 29.7784ZM80.6511 39.2686C78.8536 39.2686 77.3044 37.792 77.3044 35.6876C77.3044 33.5609 78.855 32.1065 80.6511 32.1065C82.4485 32.1065 83.9978 33.5609 83.9978 35.6876C83.9992 37.7907 82.4485 39.2686 80.6511 39.2686ZM65.2033 31.5925V34.0985H71.2246C71.0447 35.5084 70.5734 36.5377 69.8538 37.2531C68.9781 38.1254 67.6073 39.0881 65.2033 39.0881C61.4968 39.0881 58.5992 36.1112 58.5992 32.4191C58.5992 28.7269 61.4968 25.7501 65.2033 25.7501C67.203 25.7501 68.663 26.5335 69.7409 27.5406L71.516 25.7723C70.01 24.3401 68.0117 23.2441 65.2033 23.2441C60.1261 23.2441 55.8577 27.3614 55.8577 32.4191C55.8577 37.4767 60.1261 41.594 65.2033 41.594C67.9434 41.594 70.0114 40.698 71.6276 39.02C73.2898 37.3642 73.8071 35.0361 73.8071 33.1567C73.8071 32.576 73.7625 32.0384 73.6718 31.5912H65.2033V31.5925ZM128.383 33.5387C127.89 32.219 126.384 29.7784 123.306 29.7784C120.251 29.7784 117.712 32.1732 117.712 35.6862C117.712 38.9978 120.229 41.594 123.598 41.594C126.315 41.594 127.888 39.9382 128.541 38.9755L126.519 37.6323C125.845 38.6172 124.924 39.2659 123.598 39.2659C122.273 39.2659 121.329 38.6616 120.722 37.4753L128.652 34.2082L128.383 33.5387ZM120.295 35.5084C120.229 33.2247 122.071 32.0621 123.397 32.0621C124.43 32.0621 125.306 32.5774 125.599 33.315L120.295 35.5084ZM113.849 41.237H116.454V23.872H113.849V41.237ZM109.579 31.0994H109.49C108.906 30.4049 107.782 29.7784 106.368 29.7784C103.402 29.7784 100.684 32.3746 100.684 35.7098C100.684 39.0214 103.402 41.5954 106.368 41.5954C107.783 41.5954 108.906 40.9689 109.49 40.2535H109.579V41.1036C109.579 43.3637 108.366 44.5722 106.412 44.5722C104.817 44.5722 103.828 43.4317 103.424 42.4691L101.155 43.4095C101.806 44.975 103.535 46.9003 106.412 46.9003C109.468 46.9003 112.051 45.1097 112.051 40.7452V30.1382H109.58V31.0994H109.579ZM106.592 39.2686C104.795 39.2686 103.29 37.7684 103.29 35.7098C103.29 33.6276 104.795 32.1065 106.592 32.1065C108.366 32.1065 109.759 33.6276 109.759 35.7098C109.759 37.7684 108.366 39.2686 106.592 39.2686ZM140.59 23.872H134.356V41.237H136.956V34.6583H140.589C143.473 34.6583 146.309 32.5788 146.309 29.2658C146.309 25.9529 143.474 23.872 140.59 23.872ZM140.657 32.2413H136.956V26.289H140.657C142.603 26.289 143.707 27.8934 143.707 29.2658C143.707 30.6105 142.603 32.2413 140.657 32.2413ZM156.738 29.7478C154.854 29.7478 152.903 30.5744 152.096 32.4066L154.405 33.3664C154.899 32.4066 155.819 32.0926 156.783 32.0926C158.128 32.0926 159.496 32.8969 159.519 34.3263V34.5055C159.047 34.2374 158.038 33.8359 156.805 33.8359C154.316 33.8359 151.781 35.1986 151.781 37.7448C151.781 40.0688 153.822 41.5648 156.109 41.5648C157.858 41.5648 158.823 40.7827 159.428 39.8659H159.517V41.2064H162.03V34.5485C162.032 31.4675 159.72 29.7478 156.738 29.7478ZM156.423 39.2645C155.572 39.2645 154.383 38.8394 154.383 37.7893C154.383 36.4488 155.864 35.9348 157.143 35.9348C158.285 35.9348 158.824 36.1807 159.519 36.5155C159.317 38.1254 157.926 39.2645 156.423 39.2645ZM171.181 30.1271L168.198 37.6559H168.109L165.013 30.1271H162.21L166.852 40.6494L164.205 46.503H166.919L174.074 30.1271H171.181ZM147.745 41.237H150.346V23.872H147.745V41.237Z" fill="white"/>
<path d="M64.7488 13.7919C64.7488 14.9559 64.403 15.8825 63.7099 16.5742C62.9235 17.3966 61.8971 17.8077 60.6366 17.8077C59.429 17.8077 58.4012 17.391 57.5576 16.5576C56.7126 15.7227 56.29 14.6892 56.29 13.4557C56.29 12.2208 56.7126 11.1873 57.5576 10.3539C58.4012 9.51905 59.429 9.10232 60.6366 9.10232C61.2362 9.10232 61.8093 9.21901 62.3531 9.45098C62.8984 9.68435 63.3348 9.99412 63.6611 10.3817L62.9263 11.1151C62.3727 10.4553 61.6099 10.1261 60.6352 10.1261C59.7539 10.1261 58.9925 10.4345 58.3496 11.0512C57.7068 11.668 57.3861 12.4695 57.3861 13.4543C57.3861 14.4392 57.7068 15.2407 58.3496 15.8575C58.9925 16.4742 59.7539 16.7826 60.6352 16.7826C61.5694 16.7826 62.3489 16.4728 62.9723 15.8519C63.3767 15.4477 63.6109 14.8851 63.6737 14.1642H60.6352V13.1626H64.6888C64.7307 13.3807 64.7488 13.5905 64.7488 13.7919Z" fill="white"/>
<path d="M71.1774 10.3109H67.3677V12.953H70.8037V13.9545H67.3677V16.5965H71.1774V17.6217H66.2926V9.28715H71.1774V10.3109Z" fill="white"/>
<path d="M75.7106 17.6217H74.6355V10.3109H72.2984V9.28715H78.0477V10.3109H75.7106V17.6217Z" fill="white"/>
<path d="M82.2073 17.6217V9.28715H83.2824V17.6217H82.2073Z" fill="white"/>
<path d="M88.0503 17.6217H86.9752V10.3109H84.6381V9.28715H90.3874V10.3109H88.0503V17.6217Z" fill="white"/>
<path d="M101.271 16.5451C100.448 17.3869 99.426 17.8078 98.203 17.8078C96.9801 17.8078 95.958 17.3869 95.1366 16.5451C94.3139 15.7033 93.9039 14.6726 93.9039 13.4544C93.9039 12.2362 94.3139 11.2055 95.1366 10.3637C95.958 9.52189 96.9801 9.09961 98.203 9.09961C99.419 9.09961 100.44 9.52328 101.265 10.3692C102.091 11.2152 102.504 12.2431 102.504 13.4544C102.504 14.6726 102.092 15.7033 101.271 16.5451ZM95.9301 15.8464C96.5492 16.4715 97.3064 16.7826 98.203 16.7826C99.0997 16.7826 99.8582 16.4701 100.476 15.8464C101.095 15.2213 101.406 14.424 101.406 13.4544C101.406 12.4848 101.095 11.6875 100.476 11.0624C99.8582 10.4373 99.0997 10.1261 98.203 10.1261C97.3064 10.1261 96.5492 10.4387 95.9301 11.0624C95.3123 11.6875 95.0014 12.4848 95.0014 13.4544C95.0014 14.424 95.3123 15.2213 95.9301 15.8464Z" fill="white"/>
<path d="M104.012 17.6217V9.28715H105.32L109.387 15.77H109.433L109.387 14.1642V9.28715H110.462V17.6217H109.339L105.085 10.8235H105.039L105.085 12.4293V17.6217H104.012Z" fill="white"/>
<g filter="url(#filter0_ii_23234_29236)">
<path d="M14.5715 10.035C14.1658 10.4628 13.9259 11.1268 13.9259 11.9867V42.7077C13.9259 43.5689 14.1658 44.2315 14.5715 44.6594L14.6747 44.7594L31.9506 27.55V27.3472V27.1444L14.6747 9.93359L14.5715 10.035Z" fill="url(#paint0_linear_23234_29236)"/>
<path d="M37.7084 33.2881L31.9507 27.5498V27.347V27.1442L37.7098 21.4072L37.8395 21.4808L44.6625 25.3425C46.6106 26.4454 46.6106 28.2499 44.6625 29.3542L37.8395 33.2158L37.7084 33.2881Z" fill="url(#paint1_linear_23234_29236)"/>
<g filter="url(#filter1_i_23234_29236)">
<path d="M37.8386 33.2142L31.9484 27.3467L14.5707 44.6589C15.2121 45.3367 16.2733 45.4201 17.4684 44.745L37.8386 33.2142Z" fill="url(#paint2_linear_23234_29236)"/>
</g>
<path d="M37.8386 21.4797L17.4684 9.95024C16.2733 9.27375 15.2121 9.35849 14.5707 10.0364L31.9498 27.3485L37.8386 21.4797Z" fill="url(#paint3_linear_23234_29236)"/>
</g>
<defs>
<filter id="filter0_ii_23234_29236" x="13.9259" y="9.4834" width="32.1976" height="35.7275" filterUnits="userSpaceOnUse" color-interpolation-filters="sRGB">
<feFlood flood-opacity="0" result="BackgroundImageFix"/>
<feBlend mode="normal" in="SourceGraphic" in2="BackgroundImageFix" result="shape"/>
<feColorMatrix in="SourceAlpha" type="matrix" values="0 0 0 0 0 0 0 0 0 0 0 0 0 0 0 0 0 0 127 0" result="hardAlpha"/>
<feOffset dy="-0.15"/>
<feComposite in2="hardAlpha" operator="arithmetic" k2="-1" k3="1"/>
<feColorMatrix type="matrix" values="0 0 0 0 0 0 0 0 0 0 0 0 0 0 0 0 0 0 0.12 0"/>
<feBlend mode="normal" in2="shape" result="effect1_innerShadow_23234_29236"/>
<feColorMatrix in="SourceAlpha" type="matrix" values="0 0 0 0 0 0 0 0 0 0 0 0 0 0 0 0 0 0 127 0" result="hardAlpha"/>
<feOffset dy="0.15"/>
<feComposite in2="hardAlpha" operator="arithmetic" k2="-1" k3="1"/>
<feColorMatrix type="matrix" values="0 0 0 0 1 0 0 0 0 1 0 0 0 0 1 0 0 0 0.25 0"/>
<feBlend mode="normal" in2="effect1_innerShadow_23234_29236" result="effect2_innerShadow_23234_29236"/>
</filter>
<filter id="filter1_i_23234_29236" x="14.5707" y="27.3467" width="23.2679" height="17.8643" filterUnits="userSpaceOnUse" color-interpolation-filters="sRGB">
<feFlood flood-opacity="0" result="BackgroundImageFix"/>
<feBlend mode="normal" in="SourceGraphic" in2="BackgroundImageFix" result="shape"/>
<feColorMatrix in="SourceAlpha" type="matrix" values="0 0 0 0 0 0 0 0 0 0 0 0 0 0 0 0 0 0 127 0" result="hardAlpha"/>
<feOffset dy="-0.15"/>
<feComposite in2="hardAlpha" operator="arithmetic" k2="-1" k3="1"/>
<feColorMatrix type="matrix" values="0 0 0 0 0 0 0 0 0 0 0 0 0 0 0 0 0 0 0.08 0"/>
<feBlend mode="normal" in2="shape" result="effect1_innerShadow_23234_29236"/>
</filter>
<linearGradient id="paint0_linear_23234_29236" x1="30.4192" y1="11.6616" x2="7.10777" y2="35.0632" gradientUnits="userSpaceOnUse">
<stop stop-color="#00A0FF"/>
<stop offset="0.0066" stop-color="#00A1FF"/>
<stop offset="0.2601" stop-color="#00BEFF"/>
<stop offset="0.5122" stop-color="#00D2FF"/>
<stop offset="0.7604" stop-color="#00DFFF"/>
<stop offset="1" stop-color="#00E3FF"/>
</linearGradient>
<linearGradient id="paint1_linear_23234_29236" x1="47.1984" y1="27.347" x2="13.4583" y2="27.347" gradientUnits="userSpaceOnUse">
<stop stop-color="#FFE000"/>
<stop offset="0.4087" stop-color="#FFBD00"/>
<stop offset="0.7754" stop-color="#FFA500"/>
<stop offset="1" stop-color="#FF9C00"/>
</linearGradient>
<linearGradient id="paint2_linear_23234_29236" x1="34.6398" y1="30.5331" x2="3.02655" y2="62.2686" gradientUnits="userSpaceOnUse">
<stop stop-color="#FF3A44"/>
<stop offset="1" stop-color="#C31162"/>
</linearGradient>
<linearGradient id="paint3_linear_23234_29236" x1="10.194" y1="-0.190371" x2="24.3102" y2="13.9804" gradientUnits="userSpaceOnUse">
<stop stop-color="#32A071"/>
<stop offset="0.0685" stop-color="#2DA771"/>
<stop offset="0.4762" stop-color="#15CF74"/>
<stop offset="0.8009" stop-color="#06E775"/>
<stop offset="1" stop-color="#00F076"/>
</linearGradient>
</defs>
</svg>
