<svg width="162" height="50" viewBox="0 0 162 50" fill="none" xmlns="http://www.w3.org/2000/svg">
<g filter="url(#filter0_d_1_26)">
<path fill-rule="evenodd" clip-rule="evenodd" d="M9 1C4.58172 1 1 4.58172 1 9V41C1 45.4183 4.58172 49 9 49H153C157.418 49 161 45.4183 161 41V9C161 4.58172 157.418 1 153 1H9ZM45 26.7321C46.3333 25.9623 46.3333 24.0378 45 23.268L30 14.6077C28.6667 13.8379 27 14.8001 27 16.3397L27 33.6603C27 35.1999 28.6667 36.1621 30 35.3923L45 26.7321Z" fill="white"/>
</g>
<path d="M59.1 20C59.0267 20 58.97 19.98 58.93 19.94C58.89 19.8933 58.87 19.8367 58.87 19.77V13.24C58.87 13.1667 58.89 13.11 58.93 13.07C58.97 13.0233 59.0267 13 59.1 13H61.37C62.0567 13 62.61 13.1033 63.03 13.31C63.45 13.5167 63.7567 13.8233 63.95 14.23C64.1433 14.63 64.2433 15.1233 64.25 15.71C64.2567 16.01 64.26 16.2733 64.26 16.5C64.26 16.7267 64.2567 16.9867 64.25 17.28C64.2367 17.8933 64.1333 18.4033 63.94 18.81C63.7533 19.21 63.4533 19.51 63.04 19.71C62.6333 19.9033 62.0933 20 61.42 20H59.1ZM59.85 19.15H61.37C61.83 19.15 62.1967 19.0867 62.47 18.96C62.7433 18.8333 62.94 18.63 63.06 18.35C63.1867 18.07 63.2533 17.7 63.26 17.24C63.2733 17.04 63.28 16.8667 63.28 16.72C63.28 16.5667 63.28 16.4167 63.28 16.27C63.28 16.1167 63.2733 15.9433 63.26 15.75C63.2467 15.1033 63.0933 14.6267 62.8 14.32C62.5067 14.0067 62.0133 13.85 61.32 13.85H59.85V19.15ZM67.6645 20.1C67.1579 20.1 66.7345 20.0033 66.3945 19.81C66.0545 19.6167 65.7945 19.35 65.6145 19.01C65.4345 18.6633 65.3345 18.27 65.3145 17.83C65.3079 17.7167 65.3045 17.5733 65.3045 17.4C65.3045 17.22 65.3079 17.0767 65.3145 16.97C65.3345 16.5233 65.4345 16.13 65.6145 15.79C65.8012 15.45 66.0645 15.1833 66.4045 14.99C66.7445 14.7967 67.1645 14.7 67.6645 14.7C68.1645 14.7 68.5845 14.7967 68.9245 14.99C69.2645 15.1833 69.5245 15.45 69.7045 15.79C69.8912 16.13 69.9945 16.5233 70.0145 16.97C70.0212 17.0767 70.0245 17.22 70.0245 17.4C70.0245 17.5733 70.0212 17.7167 70.0145 17.83C69.9945 18.27 69.8945 18.6633 69.7145 19.01C69.5345 19.35 69.2745 19.6167 68.9345 19.81C68.5945 20.0033 68.1712 20.1 67.6645 20.1ZM67.6645 19.33C68.0779 19.33 68.4079 19.2 68.6545 18.94C68.9012 18.6733 69.0345 18.2867 69.0545 17.78C69.0612 17.68 69.0645 17.5533 69.0645 17.4C69.0645 17.2467 69.0612 17.12 69.0545 17.02C69.0345 16.5133 68.9012 16.13 68.6545 15.87C68.4079 15.6033 68.0779 15.47 67.6645 15.47C67.2512 15.47 66.9179 15.6033 66.6645 15.87C66.4179 16.13 66.2879 16.5133 66.2745 17.02C66.2679 17.12 66.2645 17.2467 66.2645 17.4C66.2645 17.5533 66.2679 17.68 66.2745 17.78C66.2879 18.2867 66.4179 18.6733 66.6645 18.94C66.9179 19.2 67.2512 19.33 67.6645 19.33ZM72.42 20C72.3333 20 72.2667 19.98 72.22 19.94C72.1733 19.8933 72.1333 19.83 72.1 19.75L70.68 15.11C70.6667 15.0767 70.66 15.0433 70.66 15.01C70.66 14.95 70.68 14.9 70.72 14.86C70.7667 14.82 70.8167 14.8 70.87 14.8H71.31C71.3833 14.8 71.44 14.82 71.48 14.86C71.52 14.9 71.5467 14.9367 71.56 14.97L72.67 18.74L73.86 15.01C73.8733 14.9633 73.9 14.9167 73.94 14.87C73.9867 14.8233 74.0533 14.8 74.14 14.8H74.48C74.5667 14.8 74.6333 14.8233 74.68 14.87C74.7267 14.9167 74.7533 14.9633 74.76 15.01L75.95 18.74L77.06 14.97C77.0667 14.9367 77.09 14.9 77.13 14.86C77.17 14.82 77.2267 14.8 77.3 14.8H77.74C77.8 14.8 77.85 14.82 77.89 14.86C77.93 14.9 77.95 14.95 77.95 15.01C77.95 15.0433 77.9433 15.0767 77.93 15.11L76.51 19.75C76.49 19.83 76.4533 19.8933 76.4 19.94C76.3533 19.98 76.2833 20 76.19 20H75.8C75.7133 20 75.64 19.98 75.58 19.94C75.5267 19.8933 75.49 19.83 75.47 19.75L74.31 16.17L73.15 19.75C73.1233 19.83 73.0833 19.8933 73.03 19.94C72.9767 19.98 72.9033 20 72.81 20H72.42ZM79.1876 20C79.1209 20 79.0642 19.98 79.0176 19.94C78.9776 19.8933 78.9576 19.8367 78.9576 19.77V15.03C78.9576 14.9633 78.9776 14.91 79.0176 14.87C79.0642 14.8233 79.1209 14.8 79.1876 14.8H79.6576C79.7242 14.8 79.7776 14.8233 79.8176 14.87C79.8642 14.91 79.8876 14.9633 79.8876 15.03V15.47C80.0609 15.2433 80.2776 15.06 80.5376 14.92C80.8042 14.7733 81.1442 14.7 81.5576 14.7C81.9909 14.7 82.3576 14.7967 82.6576 14.99C82.9642 15.1767 83.1942 15.44 83.3476 15.78C83.5009 16.1133 83.5776 16.5033 83.5776 16.95V19.77C83.5776 19.8367 83.5576 19.8933 83.5176 19.94C83.4776 19.98 83.4242 20 83.3576 20H82.8576C82.7909 20 82.7342 19.98 82.6876 19.94C82.6476 19.8933 82.6276 19.8367 82.6276 19.77V17C82.6276 16.5333 82.5142 16.17 82.2876 15.91C82.0609 15.6433 81.7276 15.51 81.2876 15.51C80.8742 15.51 80.5409 15.6433 80.2876 15.91C80.0409 16.17 79.9176 16.5333 79.9176 17V19.77C79.9176 19.8367 79.8942 19.8933 79.8476 19.94C79.8076 19.98 79.7542 20 79.6876 20H79.1876ZM85.162 20C85.0954 20 85.0387 19.98 84.992 19.94C84.952 19.8933 84.932 19.8367 84.932 19.77V13.13C84.932 13.0633 84.952 13.01 84.992 12.97C85.0387 12.9233 85.0954 12.9 85.162 12.9H85.632C85.7054 12.9 85.762 12.9233 85.802 12.97C85.842 13.01 85.862 13.0633 85.862 13.13V19.77C85.862 19.8367 85.842 19.8933 85.802 19.94C85.762 19.98 85.7054 20 85.632 20H85.162ZM89.3837 20.1C88.877 20.1 88.4537 20.0033 88.1137 19.81C87.7737 19.6167 87.5137 19.35 87.3337 19.01C87.1537 18.6633 87.0537 18.27 87.0337 17.83C87.027 17.7167 87.0237 17.5733 87.0237 17.4C87.0237 17.22 87.027 17.0767 87.0337 16.97C87.0537 16.5233 87.1537 16.13 87.3337 15.79C87.5203 15.45 87.7837 15.1833 88.1237 14.99C88.4637 14.7967 88.8837 14.7 89.3837 14.7C89.8837 14.7 90.3037 14.7967 90.6437 14.99C90.9837 15.1833 91.2437 15.45 91.4237 15.79C91.6103 16.13 91.7137 16.5233 91.7337 16.97C91.7403 17.0767 91.7437 17.22 91.7437 17.4C91.7437 17.5733 91.7403 17.7167 91.7337 17.83C91.7137 18.27 91.6137 18.6633 91.4337 19.01C91.2537 19.35 90.9937 19.6167 90.6537 19.81C90.3137 20.0033 89.8903 20.1 89.3837 20.1ZM89.3837 19.33C89.797 19.33 90.127 19.2 90.3737 18.94C90.6203 18.6733 90.7537 18.2867 90.7737 17.78C90.7803 17.68 90.7837 17.5533 90.7837 17.4C90.7837 17.2467 90.7803 17.12 90.7737 17.02C90.7537 16.5133 90.6203 16.13 90.3737 15.87C90.127 15.6033 89.797 15.47 89.3837 15.47C88.9703 15.47 88.637 15.6033 88.3837 15.87C88.137 16.13 88.007 16.5133 87.9937 17.02C87.987 17.12 87.9837 17.2467 87.9837 17.4C87.9837 17.5533 87.987 17.68 87.9937 17.78C88.007 18.2867 88.137 18.6733 88.3837 18.94C88.637 19.2 88.9703 19.33 89.3837 19.33ZM94.3459 20.1C94.0125 20.1 93.7092 20.0333 93.4359 19.9C93.1625 19.7667 92.9425 19.5867 92.7759 19.36C92.6092 19.1333 92.5259 18.8767 92.5259 18.59C92.5259 18.13 92.7125 17.7633 93.0859 17.49C93.4592 17.2167 93.9459 17.0367 94.5459 16.95L96.0359 16.74V16.45C96.0359 16.13 95.9425 15.88 95.7559 15.7C95.5759 15.52 95.2792 15.43 94.8659 15.43C94.5659 15.43 94.3225 15.49 94.1359 15.61C93.9559 15.73 93.8292 15.8833 93.7559 16.07C93.7159 16.17 93.6459 16.22 93.5459 16.22H93.0959C93.0225 16.22 92.9659 16.2 92.9259 16.16C92.8925 16.1133 92.8759 16.06 92.8759 16C92.8759 15.9 92.9125 15.7767 92.9859 15.63C93.0659 15.4833 93.1859 15.34 93.3459 15.2C93.5059 15.06 93.7092 14.9433 93.9559 14.85C94.2092 14.75 94.5159 14.7 94.8759 14.7C95.2759 14.7 95.6125 14.7533 95.8859 14.86C96.1592 14.96 96.3725 15.0967 96.5259 15.27C96.6859 15.4433 96.7992 15.64 96.8659 15.86C96.9392 16.08 96.9759 16.3033 96.9759 16.53V19.77C96.9759 19.8367 96.9525 19.8933 96.9059 19.94C96.8659 19.98 96.8125 20 96.7459 20H96.2859C96.2125 20 96.1559 19.98 96.1159 19.94C96.0759 19.8933 96.0559 19.8367 96.0559 19.77V19.34C95.9692 19.46 95.8525 19.58 95.7059 19.7C95.5592 19.8133 95.3759 19.91 95.1559 19.99C94.9359 20.0633 94.6659 20.1 94.3459 20.1ZM94.5559 19.35C94.8292 19.35 95.0792 19.2933 95.3059 19.18C95.5325 19.06 95.7092 18.8767 95.8359 18.63C95.9692 18.3833 96.0359 18.0733 96.0359 17.7V17.42L94.8759 17.59C94.4025 17.6567 94.0459 17.77 93.8059 17.93C93.5659 18.0833 93.4459 18.28 93.4459 18.52C93.4459 18.7067 93.4992 18.8633 93.6059 18.99C93.7192 19.11 93.8592 19.2 94.0259 19.26C94.1992 19.32 94.3759 19.35 94.5559 19.35ZM100.213 20.1C99.8468 20.1 99.5301 20.0367 99.2634 19.91C98.9968 19.7767 98.7768 19.6 98.6034 19.38C98.4368 19.1533 98.3101 18.8967 98.2234 18.61C98.1434 18.3233 98.0968 18.02 98.0834 17.7C98.0768 17.5933 98.0734 17.4933 98.0734 17.4C98.0734 17.3067 98.0768 17.2067 98.0834 17.1C98.0968 16.7867 98.1434 16.4867 98.2234 16.2C98.3101 15.9133 98.4368 15.6567 98.6034 15.43C98.7768 15.2033 98.9968 15.0267 99.2634 14.9C99.5301 14.7667 99.8468 14.7 100.213 14.7C100.607 14.7 100.933 14.77 101.193 14.91C101.453 15.05 101.667 15.2233 101.833 15.43V13.13C101.833 13.0633 101.853 13.01 101.893 12.97C101.94 12.9233 101.997 12.9 102.063 12.9H102.543C102.61 12.9 102.663 12.9233 102.703 12.97C102.75 13.01 102.773 13.0633 102.773 13.13V19.77C102.773 19.8367 102.75 19.8933 102.703 19.94C102.663 19.98 102.61 20 102.543 20H102.093C102.02 20 101.963 19.98 101.923 19.94C101.883 19.8933 101.863 19.8367 101.863 19.77V19.35C101.697 19.5633 101.48 19.7433 101.213 19.89C100.947 20.03 100.613 20.1 100.213 20.1ZM100.423 19.29C100.757 19.29 101.023 19.2133 101.223 19.06C101.423 18.9067 101.573 18.7133 101.673 18.48C101.773 18.24 101.827 17.9967 101.833 17.75C101.84 17.6433 101.843 17.5167 101.843 17.37C101.843 17.2167 101.84 17.0867 101.833 16.98C101.827 16.7467 101.77 16.5167 101.663 16.29C101.563 16.0633 101.41 15.8767 101.203 15.73C101.003 15.5833 100.743 15.51 100.423 15.51C100.083 15.51 99.8134 15.5867 99.6134 15.74C99.4134 15.8867 99.2701 16.0833 99.1834 16.33C99.0968 16.57 99.0468 16.83 99.0334 17.11C99.0268 17.3033 99.0268 17.4967 99.0334 17.69C99.0468 17.97 99.0968 18.2333 99.1834 18.48C99.2701 18.72 99.4134 18.9167 99.6134 19.07C99.8134 19.2167 100.083 19.29 100.423 19.29ZM108.642 20.1C108.135 20.1 107.712 20.0033 107.372 19.81C107.032 19.6167 106.772 19.35 106.592 19.01C106.412 18.6633 106.312 18.27 106.292 17.83C106.285 17.7167 106.282 17.5733 106.282 17.4C106.282 17.22 106.285 17.0767 106.292 16.97C106.312 16.5233 106.412 16.13 106.592 15.79C106.779 15.45 107.042 15.1833 107.382 14.99C107.722 14.7967 108.142 14.7 108.642 14.7C109.142 14.7 109.562 14.7967 109.902 14.99C110.242 15.1833 110.502 15.45 110.682 15.79C110.869 16.13 110.972 16.5233 110.992 16.97C110.999 17.0767 111.002 17.22 111.002 17.4C111.002 17.5733 110.999 17.7167 110.992 17.83C110.972 18.27 110.872 18.6633 110.692 19.01C110.512 19.35 110.252 19.6167 109.912 19.81C109.572 20.0033 109.149 20.1 108.642 20.1ZM108.642 19.33C109.055 19.33 109.385 19.2 109.632 18.94C109.879 18.6733 110.012 18.2867 110.032 17.78C110.039 17.68 110.042 17.5533 110.042 17.4C110.042 17.2467 110.039 17.12 110.032 17.02C110.012 16.5133 109.879 16.13 109.632 15.87C109.385 15.6033 109.055 15.47 108.642 15.47C108.229 15.47 107.895 15.6033 107.642 15.87C107.395 16.13 107.265 16.5133 107.252 17.02C107.245 17.12 107.242 17.2467 107.242 17.4C107.242 17.5533 107.245 17.68 107.252 17.78C107.265 18.2867 107.395 18.6733 107.642 18.94C107.895 19.2 108.229 19.33 108.642 19.33ZM112.384 20C112.317 20 112.261 19.98 112.214 19.94C112.174 19.8933 112.154 19.8367 112.154 19.77V15.03C112.154 14.9633 112.174 14.91 112.214 14.87C112.261 14.8233 112.317 14.8 112.384 14.8H112.854C112.921 14.8 112.974 14.8233 113.014 14.87C113.061 14.91 113.084 14.9633 113.084 15.03V15.47C113.257 15.2433 113.474 15.06 113.734 14.92C114.001 14.7733 114.341 14.7 114.754 14.7C115.187 14.7 115.554 14.7967 115.854 14.99C116.161 15.1767 116.391 15.44 116.544 15.78C116.697 16.1133 116.774 16.5033 116.774 16.95V19.77C116.774 19.8367 116.754 19.8933 116.714 19.94C116.674 19.98 116.621 20 116.554 20H116.054C115.987 20 115.931 19.98 115.884 19.94C115.844 19.8933 115.824 19.8367 115.824 19.77V17C115.824 16.5333 115.711 16.17 115.484 15.91C115.257 15.6433 114.924 15.51 114.484 15.51C114.071 15.51 113.737 15.6433 113.484 15.91C113.237 16.17 113.114 16.5333 113.114 17V19.77C113.114 19.8367 113.091 19.8933 113.044 19.94C113.004 19.98 112.951 20 112.884 20H112.384ZM122.285 20C121.912 20 121.608 19.93 121.375 19.79C121.142 19.6433 120.972 19.44 120.865 19.18C120.758 18.9133 120.705 18.6 120.705 18.24V15.6H119.925C119.858 15.6 119.802 15.58 119.755 15.54C119.715 15.4933 119.695 15.4367 119.695 15.37V15.03C119.695 14.9633 119.715 14.91 119.755 14.87C119.802 14.8233 119.858 14.8 119.925 14.8H120.705V13.13C120.705 13.0633 120.725 13.01 120.765 12.97C120.812 12.9233 120.868 12.9 120.935 12.9H121.405C121.472 12.9 121.525 12.9233 121.565 12.97C121.612 13.01 121.635 13.0633 121.635 13.13V14.8H122.875C122.942 14.8 122.995 14.8233 123.035 14.87C123.082 14.91 123.105 14.9633 123.105 15.03V15.37C123.105 15.4367 123.082 15.4933 123.035 15.54C122.995 15.58 122.942 15.6 122.875 15.6H121.635V18.17C121.635 18.4833 121.688 18.73 121.795 18.91C121.902 19.09 122.092 19.18 122.365 19.18H122.975C123.042 19.18 123.095 19.2033 123.135 19.25C123.182 19.29 123.205 19.3433 123.205 19.41V19.77C123.205 19.8367 123.182 19.8933 123.135 19.94C123.095 19.98 123.042 20 122.975 20H122.285ZM124.301 20C124.234 20 124.178 19.98 124.131 19.94C124.091 19.8933 124.071 19.8367 124.071 19.77V13.13C124.071 13.0633 124.091 13.01 124.131 12.97C124.178 12.9233 124.234 12.9 124.301 12.9H124.801C124.874 12.9 124.931 12.9233 124.971 12.97C125.011 13.01 125.031 13.0633 125.031 13.13V15.46C125.211 15.2333 125.431 15.05 125.691 14.91C125.951 14.77 126.281 14.7 126.681 14.7C127.114 14.7 127.481 14.7967 127.781 14.99C128.088 15.1767 128.318 15.44 128.471 15.78C128.631 16.1133 128.711 16.5033 128.711 16.95V19.77C128.711 19.8367 128.691 19.8933 128.651 19.94C128.611 19.98 128.554 20 128.481 20H127.981C127.914 20 127.858 19.98 127.811 19.94C127.771 19.8933 127.751 19.8367 127.751 19.77V17C127.751 16.5333 127.638 16.17 127.411 15.91C127.184 15.6433 126.851 15.51 126.411 15.51C125.998 15.51 125.664 15.6433 125.411 15.91C125.158 16.17 125.031 16.5333 125.031 17V19.77C125.031 19.8367 125.011 19.8933 124.971 19.94C124.931 19.98 124.874 20 124.801 20H124.301ZM132.125 20.1C131.438 20.1 130.892 19.89 130.485 19.47C130.078 19.0433 129.855 18.4633 129.815 17.73C129.808 17.6433 129.805 17.5333 129.805 17.4C129.805 17.26 129.808 17.1467 129.815 17.06C129.842 16.5867 129.952 16.1733 130.145 15.82C130.338 15.46 130.602 15.1833 130.935 14.99C131.275 14.7967 131.672 14.7 132.125 14.7C132.632 14.7 133.055 14.8067 133.395 15.02C133.742 15.2333 134.005 15.5367 134.185 15.93C134.365 16.3233 134.455 16.7833 134.455 17.31V17.48C134.455 17.5533 134.432 17.61 134.385 17.65C134.345 17.69 134.292 17.71 134.225 17.71H130.765C130.765 17.7167 130.765 17.73 130.765 17.75C130.765 17.77 130.765 17.7867 130.765 17.8C130.778 18.0733 130.838 18.33 130.945 18.57C131.052 18.8033 131.205 18.9933 131.405 19.14C131.605 19.2867 131.845 19.36 132.125 19.36C132.365 19.36 132.565 19.3233 132.725 19.25C132.885 19.1767 133.015 19.0967 133.115 19.01C133.215 18.9167 133.282 18.8467 133.315 18.8C133.375 18.7133 133.422 18.6633 133.455 18.65C133.488 18.63 133.542 18.62 133.615 18.62H134.095C134.162 18.62 134.215 18.64 134.255 18.68C134.302 18.7133 134.322 18.7633 134.315 18.83C134.308 18.93 134.255 19.0533 134.155 19.2C134.055 19.34 133.912 19.48 133.725 19.62C133.538 19.76 133.312 19.8767 133.045 19.97C132.778 20.0567 132.472 20.1 132.125 20.1ZM130.765 17.02H133.505V16.99C133.505 16.69 133.448 16.4233 133.335 16.19C133.228 15.9567 133.072 15.7733 132.865 15.64C132.658 15.5 132.412 15.43 132.125 15.43C131.838 15.43 131.592 15.5 131.385 15.64C131.185 15.7733 131.032 15.9567 130.925 16.19C130.818 16.4233 130.765 16.69 130.765 16.99V17.02Z" fill="#333333"/>
<path d="M62.774 37.14C61.9527 37.14 61.2527 36.986 60.674 36.678C60.1047 36.37 59.666 35.936 59.358 35.376C59.0593 34.816 58.8913 34.158 58.854 33.402C58.8447 32.9913 58.84 32.5573 58.84 32.1C58.84 31.6333 58.8447 31.19 58.854 30.77C58.8913 30.014 59.0593 29.3607 59.358 28.81C59.666 28.2593 60.1093 27.83 60.688 27.522C61.2667 27.214 61.962 27.06 62.774 27.06C63.4367 27.06 64.0107 27.1533 64.496 27.34C64.9813 27.5267 65.378 27.7647 65.686 28.054C66.0033 28.334 66.2367 28.628 66.386 28.936C66.5447 29.244 66.6287 29.5147 66.638 29.748C66.6473 29.832 66.624 29.902 66.568 29.958C66.512 30.0047 66.4373 30.028 66.344 30.028H65.518C65.4247 30.028 65.3547 30.0093 65.308 29.972C65.2707 29.9347 65.2333 29.8693 65.196 29.776C65.112 29.5333 64.972 29.2953 64.776 29.062C64.5893 28.8287 64.3327 28.6373 64.006 28.488C63.6887 28.3293 63.278 28.25 62.774 28.25C62.0367 28.25 61.4393 28.4507 60.982 28.852C60.534 29.2533 60.2913 29.916 60.254 30.84C60.226 31.6707 60.226 32.5013 60.254 33.332C60.2913 34.2653 60.5387 34.9373 60.996 35.348C61.4533 35.7493 62.0507 35.95 62.788 35.95C63.2827 35.95 63.7213 35.8613 64.104 35.684C64.496 35.4973 64.804 35.2127 65.028 34.83C65.252 34.4473 65.364 33.962 65.364 33.374V32.786H63.264C63.1707 32.786 63.0913 32.758 63.026 32.702C62.97 32.6367 62.942 32.5527 62.942 32.45V32.002C62.942 31.8993 62.97 31.82 63.026 31.764C63.0913 31.6987 63.1707 31.666 63.264 31.666H66.428C66.5307 31.666 66.61 31.6987 66.666 31.764C66.722 31.82 66.75 31.8993 66.75 32.002V33.346C66.75 34.1113 66.5913 34.7787 66.274 35.348C65.966 35.9173 65.5133 36.3607 64.916 36.678C64.3187 36.986 63.6047 37.14 62.774 37.14ZM71.4073 37.14C70.698 37.14 70.1053 37.0047 69.6293 36.734C69.1533 36.4633 68.7893 36.09 68.5373 35.614C68.2853 35.1287 68.1453 34.578 68.1173 33.962C68.108 33.8033 68.1033 33.6027 68.1033 33.36C68.1033 33.108 68.108 32.9073 68.1173 32.758C68.1453 32.1327 68.2853 31.582 68.5373 31.106C68.7986 30.63 69.1673 30.2567 69.6433 29.986C70.1193 29.7153 70.7073 29.58 71.4073 29.58C72.1073 29.58 72.6953 29.7153 73.1713 29.986C73.6473 30.2567 74.0113 30.63 74.2633 31.106C74.5246 31.582 74.6693 32.1327 74.6973 32.758C74.7066 32.9073 74.7113 33.108 74.7113 33.36C74.7113 33.6027 74.7066 33.8033 74.6973 33.962C74.6693 34.578 74.5293 35.1287 74.2773 35.614C74.0253 36.09 73.6613 36.4633 73.1853 36.734C72.7093 37.0047 72.1166 37.14 71.4073 37.14ZM71.4073 36.062C71.986 36.062 72.448 35.88 72.7933 35.516C73.1386 35.1427 73.3253 34.6013 73.3533 33.892C73.3626 33.752 73.3673 33.5747 73.3673 33.36C73.3673 33.1453 73.3626 32.968 73.3533 32.828C73.3253 32.1187 73.1386 31.582 72.7933 31.218C72.448 30.8447 71.986 30.658 71.4073 30.658C70.8286 30.658 70.362 30.8447 70.0073 31.218C69.662 31.582 69.48 32.1187 69.4613 32.828C69.452 32.968 69.4473 33.1453 69.4473 33.36C69.4473 33.5747 69.452 33.752 69.4613 33.892C69.48 34.6013 69.662 35.1427 70.0073 35.516C70.362 35.88 70.8286 36.062 71.4073 36.062ZM79.3064 37.14C78.597 37.14 78.0044 37.0047 77.5284 36.734C77.0524 36.4633 76.6884 36.09 76.4364 35.614C76.1844 35.1287 76.0444 34.578 76.0164 33.962C76.007 33.8033 76.0024 33.6027 76.0024 33.36C76.0024 33.108 76.007 32.9073 76.0164 32.758C76.0444 32.1327 76.1844 31.582 76.4364 31.106C76.6977 30.63 77.0664 30.2567 77.5424 29.986C78.0184 29.7153 78.6064 29.58 79.3064 29.58C80.0064 29.58 80.5944 29.7153 81.0704 29.986C81.5464 30.2567 81.9104 30.63 82.1624 31.106C82.4237 31.582 82.5684 32.1327 82.5964 32.758C82.6057 32.9073 82.6104 33.108 82.6104 33.36C82.6104 33.6027 82.6057 33.8033 82.5964 33.962C82.5684 34.578 82.4284 35.1287 82.1764 35.614C81.9244 36.09 81.5604 36.4633 81.0844 36.734C80.6084 37.0047 80.0157 37.14 79.3064 37.14ZM79.3064 36.062C79.885 36.062 80.347 35.88 80.6924 35.516C81.0377 35.1427 81.2244 34.6013 81.2524 33.892C81.2617 33.752 81.2664 33.5747 81.2664 33.36C81.2664 33.1453 81.2617 32.968 81.2524 32.828C81.2244 32.1187 81.0377 31.582 80.6924 31.218C80.347 30.8447 79.885 30.658 79.3064 30.658C78.7277 30.658 78.261 30.8447 77.9064 31.218C77.561 31.582 77.379 32.1187 77.3604 32.828C77.351 32.968 77.3464 33.1453 77.3464 33.36C77.3464 33.5747 77.351 33.752 77.3604 33.892C77.379 34.6013 77.561 35.1427 77.9064 35.516C78.261 35.88 78.7277 36.062 79.3064 36.062ZM87.2054 40.08C86.5708 40.08 86.0481 39.996 85.6374 39.828C85.2361 39.66 84.9188 39.4547 84.6854 39.212C84.4614 38.9787 84.2981 38.7407 84.1954 38.498C84.1021 38.2647 84.0508 38.078 84.0414 37.938C84.0321 37.8447 84.0601 37.7653 84.1254 37.7C84.2001 37.6347 84.2794 37.602 84.3634 37.602H85.0354C85.1194 37.602 85.1894 37.6207 85.2454 37.658C85.3014 37.6953 85.3481 37.7747 85.3854 37.896C85.4414 38.036 85.5254 38.19 85.6374 38.358C85.7494 38.5353 85.9221 38.6847 86.1554 38.806C86.3888 38.9367 86.7154 39.002 87.1354 39.002C87.5741 39.002 87.9428 38.9413 88.2414 38.82C88.5401 38.708 88.7641 38.5027 88.9134 38.204C89.0721 37.9147 89.1514 37.5133 89.1514 37V36.048C88.9274 36.3373 88.6334 36.58 88.2694 36.776C87.9054 36.9627 87.4481 37.056 86.8974 37.056C86.3748 37.056 85.9268 36.9673 85.5534 36.79C85.1801 36.6033 84.8721 36.356 84.6294 36.048C84.3961 35.7307 84.2188 35.3713 84.0974 34.97C83.9854 34.5687 83.9201 34.1487 83.9014 33.71C83.8921 33.4487 83.8921 33.192 83.9014 32.94C83.9201 32.5013 83.9854 32.0813 84.0974 31.68C84.2188 31.2787 84.3961 30.9193 84.6294 30.602C84.8721 30.2847 85.1801 30.0373 85.5534 29.86C85.9268 29.6733 86.3748 29.58 86.8974 29.58C87.4574 29.58 87.9194 29.6873 88.2834 29.902C88.6568 30.1073 88.9601 30.3593 89.1934 30.658V30.056C89.1934 29.9627 89.2214 29.8833 89.2774 29.818C89.3428 29.7527 89.4221 29.72 89.5154 29.72H90.1594C90.2528 29.72 90.3321 29.7527 90.3974 29.818C90.4628 29.8833 90.4954 29.9627 90.4954 30.056V36.846C90.4954 37.4713 90.3881 38.0267 90.1734 38.512C89.9681 38.9973 89.6228 39.38 89.1374 39.66C88.6614 39.94 88.0174 40.08 87.2054 40.08ZM87.1774 35.936C87.6441 35.936 88.0174 35.8287 88.2974 35.614C88.5868 35.3993 88.7968 35.1287 88.9274 34.802C89.0674 34.4753 89.1421 34.144 89.1514 33.808C89.1608 33.6773 89.1654 33.5187 89.1654 33.332C89.1654 33.136 89.1608 32.9727 89.1514 32.842C89.1421 32.506 89.0674 32.1747 88.9274 31.848C88.7968 31.5213 88.5868 31.2507 88.2974 31.036C88.0174 30.8213 87.6441 30.714 87.1774 30.714C86.7108 30.714 86.3374 30.8213 86.0574 31.036C85.7774 31.2413 85.5768 31.5167 85.4554 31.862C85.3341 32.198 85.2641 32.562 85.2454 32.954C85.2361 33.1967 85.2361 33.444 85.2454 33.696C85.2641 34.088 85.3341 34.4567 85.4554 34.802C85.5768 35.138 85.7774 35.4133 86.0574 35.628C86.3374 35.8333 86.7108 35.936 87.1774 35.936ZM92.7729 37C92.6796 37 92.6003 36.972 92.5349 36.916C92.4789 36.8507 92.4509 36.7713 92.4509 36.678V27.382C92.4509 27.2887 92.4789 27.214 92.5349 27.158C92.6003 27.0927 92.6796 27.06 92.7729 27.06H93.4309C93.5336 27.06 93.6129 27.0927 93.6689 27.158C93.7249 27.214 93.7529 27.2887 93.7529 27.382V36.678C93.7529 36.7713 93.7249 36.8507 93.6689 36.916C93.6129 36.972 93.5336 37 93.4309 37H92.7729ZM98.5992 37.14C97.6379 37.14 96.8726 36.846 96.3032 36.258C95.7339 35.6607 95.4212 34.8487 95.3652 33.822C95.3559 33.7007 95.3512 33.5467 95.3512 33.36C95.3512 33.164 95.3559 33.0053 95.3652 32.884C95.4026 32.2213 95.5566 31.6427 95.8272 31.148C96.0979 30.644 96.4666 30.2567 96.9332 29.986C97.4092 29.7153 97.9646 29.58 98.5992 29.58C99.3086 29.58 99.9012 29.7293 100.377 30.028C100.863 30.3267 101.231 30.7513 101.483 31.302C101.735 31.8527 101.861 32.4967 101.861 33.234V33.472C101.861 33.5747 101.829 33.654 101.763 33.71C101.707 33.766 101.633 33.794 101.539 33.794H96.6952C96.6952 33.8033 96.6952 33.822 96.6952 33.85C96.6952 33.878 96.6952 33.9013 96.6952 33.92C96.7139 34.3027 96.7979 34.662 96.9472 34.998C97.0966 35.3247 97.3112 35.5907 97.5912 35.796C97.8712 36.0013 98.2072 36.104 98.5992 36.104C98.9352 36.104 99.2152 36.0527 99.4392 35.95C99.6632 35.8473 99.8452 35.7353 99.9852 35.614C100.125 35.4833 100.219 35.3853 100.265 35.32C100.349 35.1987 100.415 35.1287 100.461 35.11C100.508 35.082 100.583 35.068 100.685 35.068H101.357C101.451 35.068 101.525 35.096 101.581 35.152C101.647 35.1987 101.675 35.2687 101.665 35.362C101.656 35.502 101.581 35.6747 101.441 35.88C101.301 36.076 101.101 36.272 100.839 36.468C100.578 36.664 100.261 36.8273 99.8872 36.958C99.5139 37.0793 99.0846 37.14 98.5992 37.14ZM96.6952 32.828H100.531V32.786C100.531 32.366 100.452 31.9927 100.293 31.666C100.144 31.3393 99.9246 31.0827 99.6352 30.896C99.3459 30.7 99.0006 30.602 98.5992 30.602C98.1979 30.602 97.8526 30.7 97.5632 30.896C97.2832 31.0827 97.0686 31.3393 96.9192 31.666C96.7699 31.9927 96.6952 32.366 96.6952 32.786V32.828ZM107.191 37C107.088 37 107.009 36.972 106.953 36.916C106.897 36.8507 106.869 36.7713 106.869 36.678V27.536C106.869 27.4333 106.897 27.354 106.953 27.298C107.009 27.2327 107.088 27.2 107.191 27.2H110.747C111.438 27.2 112.035 27.312 112.539 27.536C113.052 27.76 113.449 28.096 113.729 28.544C114.009 28.9827 114.149 29.5333 114.149 30.196C114.149 30.8587 114.009 31.4093 113.729 31.848C113.449 32.2867 113.052 32.618 112.539 32.842C112.035 33.066 111.438 33.178 110.747 33.178H108.269V36.678C108.269 36.7713 108.236 36.8507 108.171 36.916C108.115 36.972 108.036 37 107.933 37H107.191ZM108.255 32.002H110.677C111.368 32.002 111.886 31.848 112.231 31.54C112.576 31.232 112.749 30.784 112.749 30.196C112.749 29.6173 112.581 29.1693 112.245 28.852C111.909 28.5347 111.386 28.376 110.677 28.376H108.255V32.002ZM115.865 37C115.772 37 115.693 36.972 115.627 36.916C115.571 36.8507 115.543 36.7713 115.543 36.678V27.382C115.543 27.2887 115.571 27.214 115.627 27.158C115.693 27.0927 115.772 27.06 115.865 27.06H116.523C116.626 27.06 116.705 27.0927 116.761 27.158C116.817 27.214 116.845 27.2887 116.845 27.382V36.678C116.845 36.7713 116.817 36.8507 116.761 36.916C116.705 36.972 116.626 37 116.523 37H115.865ZM120.824 37.14C120.357 37.14 119.932 37.0467 119.55 36.86C119.167 36.6733 118.859 36.4213 118.626 36.104C118.392 35.7867 118.276 35.4273 118.276 35.026C118.276 34.382 118.537 33.8687 119.06 33.486C119.582 33.1033 120.264 32.8513 121.104 32.73L123.19 32.436V32.03C123.19 31.582 123.059 31.232 122.798 30.98C122.546 30.728 122.13 30.602 121.552 30.602C121.132 30.602 120.791 30.686 120.53 30.854C120.278 31.022 120.1 31.2367 119.998 31.498C119.942 31.638 119.844 31.708 119.704 31.708H119.074C118.971 31.708 118.892 31.68 118.836 31.624C118.789 31.5587 118.766 31.484 118.766 31.4C118.766 31.26 118.817 31.0873 118.92 30.882C119.032 30.6767 119.2 30.476 119.424 30.28C119.648 30.084 119.932 29.9207 120.278 29.79C120.632 29.65 121.062 29.58 121.566 29.58C122.126 29.58 122.597 29.6547 122.98 29.804C123.362 29.944 123.661 30.1353 123.876 30.378C124.1 30.6207 124.258 30.896 124.352 31.204C124.454 31.512 124.506 31.8247 124.506 32.142V36.678C124.506 36.7713 124.473 36.8507 124.408 36.916C124.352 36.972 124.277 37 124.184 37H123.54C123.437 37 123.358 36.972 123.302 36.916C123.246 36.8507 123.218 36.7713 123.218 36.678V36.076C123.096 36.244 122.933 36.412 122.728 36.58C122.522 36.7387 122.266 36.874 121.958 36.986C121.65 37.0887 121.272 37.14 120.824 37.14ZM121.118 36.09C121.5 36.09 121.85 36.0107 122.168 35.852C122.485 35.684 122.732 35.4273 122.91 35.082C123.096 34.7367 123.19 34.3027 123.19 33.78V33.388L121.566 33.626C120.903 33.7193 120.404 33.878 120.068 34.102C119.732 34.3167 119.564 34.592 119.564 34.928C119.564 35.1893 119.638 35.4087 119.788 35.586C119.946 35.754 120.142 35.88 120.376 35.964C120.618 36.048 120.866 36.09 121.118 36.09ZM127.502 39.66C127.427 39.66 127.362 39.632 127.306 39.576C127.25 39.52 127.222 39.4547 127.222 39.38C127.222 39.3427 127.226 39.3053 127.236 39.268C127.245 39.2307 127.264 39.184 127.292 39.128L128.37 36.566L125.696 30.252C125.649 30.14 125.626 30.0607 125.626 30.014C125.626 29.93 125.654 29.86 125.71 29.804C125.766 29.748 125.836 29.72 125.92 29.72H126.606C126.699 29.72 126.774 29.7433 126.83 29.79C126.886 29.8367 126.923 29.8927 126.942 29.958L129.07 35.054L131.254 29.958C131.282 29.8927 131.319 29.8367 131.366 29.79C131.422 29.7433 131.501 29.72 131.604 29.72H132.262C132.346 29.72 132.416 29.748 132.472 29.804C132.528 29.86 132.556 29.9253 132.556 30C132.556 30.0467 132.532 30.1307 132.486 30.252L128.51 39.422C128.482 39.4873 128.44 39.5433 128.384 39.59C128.337 39.6367 128.262 39.66 128.16 39.66H127.502Z" fill="#333333"/>
<defs>
<filter id="filter0_d_1_26" x="0" y="0" width="162" height="50" filterUnits="userSpaceOnUse" color-interpolation-filters="sRGB">
<feFlood flood-opacity="0" result="BackgroundImageFix"/>
<feColorMatrix in="SourceAlpha" type="matrix" values="0 0 0 0 0 0 0 0 0 0 0 0 0 0 0 0 0 0 127 0" result="hardAlpha"/>
<feOffset/>
<feGaussianBlur stdDeviation="0.5"/>
<feComposite in2="hardAlpha" operator="out"/>
<feColorMatrix type="matrix" values="0 0 0 0 0 0 0 0 0 0 0 0 0 0 0 0 0 0 0.25 0"/>
<feBlend mode="normal" in2="BackgroundImageFix" result="effect1_dropShadow_1_26"/>
<feBlend mode="normal" in="SourceGraphic" in2="effect1_dropShadow_1_26" result="shape"/>
</filter>
</defs>
</svg>
