<svg xmlns="http://www.w3.org/2000/svg" width="16" height="16" fill="none" viewBox="0 0 16 16"><path fill="#c6864b" d="m8.15.146 1.697 1.232 2.937-.016.057.172.88 2.66 1.956 1.421-.736 2.264.824 2.488-2.144 1.575-.876 2.694H9.956l-1.835 1.348-1.877-1.348H3.26l-.907-2.794-1.937-1.39.736-2.305-.824-2.533 2.123-1.541.847-2.659 2.833-.016L8.001.04l.147.107h.002Zm2.379 1.728 2.5 1.817-.605-1.828-1.895.01Zm4.153 6.807-.796 2.449 1.292-.95-.496-1.5Zm-5.567 5.956H7.102l1.018.73.995-.73Zm-7.02-3.597-.677-2.08-.413 1.297 1.09.783Zm1.04-7.462L5.44 1.902l-1.776.01-.53 1.666Zm10.857 1.429.686 2.072.414-1.273-1.1-.799Zm-1.06 7.443-2.295 1.687h1.747l.549-1.687ZM5.55 14.137l-2.511-1.803.585 1.803H5.55ZM1.413 7.334l.784-2.458-1.28.93.496 1.528ZM6.99 1.395l2.015-.01-1-.728-1.015.738ZM13.8 6.023 13.3 4.505l-1.751-1.272L9.686 1.88l-3.39.019-3.418 2.484-1.2 3.764 1.1 3.384 3.628 2.606h3.39l3.402-2.5 1.22-3.756-.615-1.859-.002.001Z"/></svg>