<?xml version="1.0" encoding="utf-8"?>
<!-- Generator: Adobe Illustrator 24.1.2, SVG Export Plug-In . SVG Version: 6.00 Build 0)  -->
<svg version="1.1" id="Слой_1" xmlns="http://www.w3.org/2000/svg" xmlns:xlink="http://www.w3.org/1999/xlink" x="0px" y="0px"
	 width="25px" height="25px" viewBox="0 0 25 25" style="enable-background:new 0 0 25 25;" xml:space="preserve">
<style type="text/css">
	.st0{fill:#F3BA2F;}
	.st1{fill:#FFFFFF;}
</style>
<g>
	<circle class="st0" cx="12.5" cy="12.5" r="12.5"/>
	<path class="st1" d="M9.8,11.2l3-3.1l3,3.1l1.7-1.8l-4.7-4.9L8,9.4L9.8,11.2L9.8,11.2z M5,12.5l1.7-1.8l1.7,1.8l-1.7,1.8L5,12.5z
		 M9.8,13.8l3,3.1l3-3.1l1.7,1.8l0,0l-4.7,4.9L8,15.6l0,0L9.8,13.8L9.8,13.8z M17,12.5l1.7-1.8l1.7,1.8l-1.7,1.8L17,12.5z"/>
	<path class="st1" d="M14.5,12.5L14.5,12.5l-1.8-1.8L11.4,12l-0.2,0.2L11,12.5l0,0l0,0l1.8,1.8L14.5,12.5L14.5,12.5L14.5,12.5"/>
</g>
</svg>
