<svg width="30" height="30" viewBox="0 0 30 30" fill="none" xmlns="http://www.w3.org/2000/svg">
<g clip-path="url(#clip0_575_477)">
<path fill-rule="evenodd" clip-rule="evenodd" d="M25.7308 7.37304C26.9668 6.65803 27.9152 5.52428 28.3603 4.17371C27.2031 4.83741 25.9242 5.31739 24.5598 5.57724C23.471 4.45177 21.9148 3.75 20.1926 3.75C16.8885 3.75 14.211 6.34025 14.211 9.53461C14.211 9.98811 14.2606 10.43 14.3633 10.8521C9.39181 10.6104 4.98352 8.30983 2.03038 4.80762C1.51508 5.66496 1.22063 6.65803 1.22063 7.7173C1.22063 9.7233 2.27691 11.4943 3.88273 12.5337C2.90177 12.5039 1.97903 12.2407 1.17098 11.8104V11.8816C1.17098 14.6853 3.23218 17.024 5.97303 17.5536C5.46971 17.6893 4.94243 17.7572 4.3946 17.7572C4.00941 17.7572 3.63278 17.7224 3.26984 17.6546C4.02995 19.9519 6.2401 21.6269 8.8594 21.6715C6.81018 23.224 4.23025 24.1476 1.42777 24.1476C0.945002 24.1476 0.467365 24.1228 0 24.0681C2.6484 25.7084 5.79327 26.6667 9.17268 26.6667C20.1806 26.6667 26.1964 17.8515 26.1964 10.2066C26.1964 9.95501 26.193 9.70509 26.181 9.45848C27.3503 8.64251 28.3672 7.62296 29.1667 6.46273C28.0933 6.92285 26.9394 7.23401 25.7308 7.37304Z" fill="white"/>
</g>
<defs>
<clipPath id="clip0_575_477">
<rect width="30" height="30" fill="white"/>
</clipPath>
</defs>
</svg>
