<svg xmlns="http://www.w3.org/2000/svg" width="100" height="34" fill="none" viewBox="0 0 100 34"><path fill="#CF8B4A" fill-rule="evenodd" d="m41.018 3.973.894-1.163 2.44-.532c2.466-.54 4.978-1.125 5.844-2.278v4H41l.018-.027Z" clip-rule="evenodd"/><path fill="#CF8B4A" fill-rule="evenodd" d="M59.375 3.973 58.48 2.82l-2.43-.532c-2.476-.54-4.979-1.125-5.855-2.278V4h9.206l-.027-.027ZM59.384 30.027l-.894 1.163-2.44.532c-2.466.54-4.978 1.125-5.845 2.278v-4h9.197l-.018.027Z" clip-rule="evenodd"/><path fill="#CF8B4A" fill-rule="evenodd" d="m41.027 30.027.894 1.153 2.43.532c2.476.54 4.979 1.125 5.855 2.278V30H41l.027.027ZM1.385 16.903l1.85-10.095-1.153-1.305L0 16.903h1.385Z" clip-rule="evenodd"/><path fill="#CF8B4A" fill-rule="evenodd" d="m3.235 6.808 46.77-3.358V2.072L2.082 5.502l1.153 1.306ZM98.606 16.903 96.765 6.808l1.153-1.306L100 16.903h-1.394Z" clip-rule="evenodd"/><path fill="#CF8B4A" fill-rule="evenodd" d="M96.765 6.808 50.005 3.45V2.072l47.913 3.43-1.153 1.306ZM1.385 16.903l1.85 10.095-1.153 1.297L0 16.903h1.385ZM3.235 26.998l46.77 3.35v1.387l-47.923-3.44 1.153-1.297ZM98.606 16.903l-1.841 10.095 1.153 1.297L100 16.903h-1.394ZM96.765 26.998l-46.76 3.35v1.387l47.913-3.44-1.153-1.297Z" clip-rule="evenodd"/></svg>